<?xml version="1.0" encoding="utf-8"?>
<!-- Generator: Adobe Illustrator 22.0.0, SVG Export Plug-In . SVG Version: 6.00 Build 0)  -->
<svg version="1.1" id="Layer_1" xmlns="http://www.w3.org/2000/svg" xmlns:xlink="http://www.w3.org/1999/xlink" x="0px" y="0px"
	 viewBox="0 0 93 103" style="enable-background:new 0 0 93 103;" xml:space="preserve">
<style type="text/css">
	.st0{enable-background:new    ;}
	.st1{fill:#444444;}
</style>
<title>dec14</title>
<g class="st0">
	<path class="st1" d="M92.9,23.7v71.4c0,1.9-0.7,3.6-2.1,5c-1.4,1.4-3.1,2.1-5,2.1H7.1c-1.9,0-3.6-0.7-5-2.1c-1.4-1.4-2.1-3.1-2.1-5
		V23.7c0-1.9,0.7-3.6,2.1-5c1.4-1.4,3.1-2.1,5-2.1h7.1v-5.4c0-2.5,0.9-4.6,2.6-6.3c1.7-1.7,3.9-2.6,6.3-2.6h3.6
		c2.5,0,4.6,0.9,6.3,2.6c1.7,1.7,2.6,3.9,2.6,6.3v5.4h21.4v-5.4c0-2.5,0.9-4.6,2.6-6.3c1.7-1.7,3.9-2.6,6.3-2.6h3.6
		c2.5,0,4.6,0.9,6.3,2.6c1.7,1.7,2.6,3.9,2.6,6.3v5.4h7.1c1.9,0,3.6,0.7,5,2.1C92.2,20.1,92.9,21.8,92.9,23.7z M7.1,95.1h78.6V38
		H7.1V95.1z M28.6,27.3V11.2c0-0.5-0.2-0.9-0.5-1.3c-0.3-0.3-0.8-0.5-1.3-0.5h-3.6c-0.5,0-0.9,0.2-1.3,0.5c-0.3,0.3-0.5,0.8-0.5,1.3
		v16.1c0,0.5,0.2,0.9,0.5,1.3c0.3,0.3,0.8,0.5,1.3,0.5h3.6c0.5,0,0.9-0.2,1.3-0.5C28.4,28.2,28.6,27.8,28.6,27.3z M71.4,27.3V11.2
		c0-0.5-0.2-0.9-0.5-1.3c-0.3-0.3-0.8-0.5-1.3-0.5h-3.6c-0.5,0-0.9,0.2-1.3,0.5c-0.3,0.3-0.5,0.8-0.5,1.3v16.1
		c0,0.5,0.2,0.9,0.5,1.3c0.3,0.3,0.8,0.5,1.3,0.5h3.6c0.5,0,0.9-0.2,1.3-0.5C71.3,28.2,71.4,27.8,71.4,27.3z"/>
</g>
<g class="st0">
	<path class="st1" d="M29.9,65.8h-2.6c-5,0-6.9-2.1-6.9-6.8V46.7h-2.1c0-3.1,0-4.7,1.9-4.7H30c7,0,11.8,3.7,11.8,11.3
		C41.8,60.9,36.3,65.8,29.9,65.8z M25.9,46.7v11.7c0,1.8,0.8,2.7,2.6,2.7h0.8c3.6,0,6.7-2.6,6.7-7.8c0-4.9-3.3-6.6-7-6.6H25.9z"/>
</g>
<g class="st0">
	<path class="st1" d="M58.8,62.6c0,2.6-3.8,3.6-7,3.6c-5.5,0-9.3-3.4-9.3-10c0-5,3.6-8.8,9.1-8.8c5.4,0,8.4,3.5,8.4,8.7
		c0,1.9-1.6,2.4-3,2.4h-8.8c0.7,2.4,2.5,3.7,5.8,3.7c1.7,0,3.2-0.3,4.8-0.9V62.6z M48,55.3h5.7c0.6,0,0.9-0.5,0.9-0.9
		c0-2-1.1-3.3-3-3.3C49.1,51.1,48.1,52.6,48,55.3z"/>
</g>
<g class="st0">
	<path class="st1" d="M76.1,62.5c0,2.8-3.2,3.7-6.6,3.7c-5.7,0-9.2-3.6-9.2-10c0-5.4,3.9-8.8,9.5-8.8c3.8,0,7,1.7,7,4.9
		c0,2-1.4,2.8-3.1,2.8h-1.4v-0.7c0-2.1-1.2-2.9-2.7-2.9c-2.3,0-3.9,1.9-3.9,4.7c0,3.9,2.1,5.9,6,5.9c1.5,0,3.1-0.3,4.4-0.9V62.5z"/>
</g>
<g class="st0">
	<path class="st1" d="M32.1,77c2.6-0.8,7.1-2.3,7.1-3.8v-0.4c0-2.2,1.2-2.3,5.4-2.3v21.3h-5.4V79.4c-1.6,1-3.4,1.7-5.6,2.3L32.1,77z
		"/>
	<path class="st1" d="M57.8,91.8v-3.6H47.3c-0.1-1.4,0.1-3.2,0.4-4.3c3.1-4.2,6-8.7,8.2-13.3h6v0.4c-2.4,4.4-5.2,8.7-8.3,12.9h4.3
		v-2c0-2.6,0.8-2.6,5.1-2.6V84h2.8v4.3H63v3.6H57.8z"/>
</g>
</svg>
