<?xml version="1.0" encoding="utf-8"?>
<!-- Generator: Adobe Illustrator 22.0.0, SVG Export Plug-In . SVG Version: 6.00 Build 0)  -->
<svg version="1.1" id="Layer_1" xmlns="http://www.w3.org/2000/svg" xmlns:xlink="http://www.w3.org/1999/xlink" x="0px" y="0px"
	 viewBox="0 0 93 103" style="enable-background:new 0 0 93 103;" xml:space="preserve">
<style type="text/css">
	.st0{enable-background:new    ;}
	.st1{fill:#444444;}
</style>
<title>nov16</title>
<g class="st0">
	<path class="st1" d="M92.9,23.7v71.4c0,1.9-0.7,3.6-2.1,5c-1.4,1.4-3.1,2.1-5,2.1H7.1c-1.9,0-3.6-0.7-5-2.1c-1.4-1.4-2.1-3.1-2.1-5
		V23.7c0-1.9,0.7-3.6,2.1-5c1.4-1.4,3.1-2.1,5-2.1h7.1v-5.4c0-2.5,0.9-4.6,2.6-6.3c1.7-1.7,3.9-2.6,6.3-2.6h3.6
		c2.5,0,4.6,0.9,6.3,2.6c1.7,1.7,2.6,3.9,2.6,6.3v5.4h21.4v-5.4c0-2.5,0.9-4.6,2.6-6.3c1.7-1.7,3.9-2.6,6.3-2.6h3.6
		c2.5,0,4.6,0.9,6.3,2.6c1.7,1.7,2.6,3.9,2.6,6.3v5.4h7.1c1.9,0,3.6,0.7,5,2.1C92.2,20.1,92.9,21.8,92.9,23.7z M7.1,95.1h78.6V38
		H7.1V95.1z M28.6,27.3V11.2c0-0.5-0.2-0.9-0.5-1.3c-0.3-0.3-0.8-0.5-1.3-0.5h-3.6c-0.5,0-0.9,0.2-1.3,0.5c-0.3,0.3-0.5,0.8-0.5,1.3
		v16.1c0,0.5,0.2,0.9,0.5,1.3c0.3,0.3,0.8,0.5,1.3,0.5h3.6c0.5,0,0.9-0.2,1.3-0.5C28.4,28.2,28.6,27.8,28.6,27.3z M71.4,27.3V11.2
		c0-0.5-0.2-0.9-0.5-1.3c-0.3-0.3-0.8-0.5-1.3-0.5h-3.6c-0.5,0-0.9,0.2-1.3,0.5c-0.3,0.3-0.5,0.8-0.5,1.3v16.1
		c0,0.5,0.2,0.9,0.5,1.3c0.3,0.3,0.8,0.5,1.3,0.5h3.6c0.5,0,0.9-0.2,1.3-0.5C71.3,28.2,71.4,27.8,71.4,27.3z"/>
</g>
<g class="st0">
	<path class="st1" d="M33.9,66.3l-11-15.4v14.9h-5.4V43c1.5-0.8,3.6-1.2,5.3-1.3l11,15.1V42h5.4v22.9C37.7,65.7,35.5,66.2,33.9,66.3
		z"/>
</g>
<g class="st0">
	<path class="st1" d="M49.9,66.2c-5.6,0-9.2-3.9-9.2-9.7c0-5.7,3.4-9,9.2-9c5.8,0,9.2,3.4,9.2,9C59.1,62.3,55.4,66.2,49.9,66.2z
		 M49.9,51.7c-2.8,0-3.8,1.9-3.8,4.8c0,2.8,1.2,5.4,3.8,5.4c2.5,0,3.7-2.6,3.7-5.4C53.7,53.6,52.7,51.7,49.9,51.7z"/>
</g>
<g class="st0">
	<path class="st1" d="M64.7,66.1l-6.5-17.9v-0.3h6.1l3.7,12.4c1.7-4.3,3-8.7,3.9-12.4h5.8c-1.9,6-4.4,12.1-7.2,17.4
		C68.9,65.8,66.6,66,64.7,66.1z"/>
</g>
<g class="st0">
	<path class="st1" d="M30.1,77c2.6-0.8,7.1-2.3,7.1-3.8v-0.4c0-2.2,1.2-2.3,5.4-2.3v21.3h-5.4V79.4c-1.6,1-3.4,1.7-5.6,2.3L30.1,77z
		"/>
	<path class="st1" d="M55.6,92.2c-6.1,0-8.8-4.4-8.8-9.7c0-7.3,4.3-12.2,11.1-12.2c3.6,0,6.5,1.7,6.5,4.4c0,1.7-1.3,2.8-3.3,2.8h-1
		v-0.7c0-1.5-1-2.4-2.7-2.4c-3,0-4.9,3-4.9,6.7c0,0.2,0,0.7,0,0.9c1.6-1.6,3.4-2.5,6-2.5c2.6,0,5.6,1.2,5.6,5.2
		C64.1,89.5,60.2,92.2,55.6,92.2z M56,83.5c-1.5,0-2.8,0.9-2.8,2.4c0,1.3,0.9,2.4,2.4,2.4c1.7,0,2.6-1.2,2.6-2.6
		C58.3,84.4,57.7,83.5,56,83.5z"/>
</g>
</svg>
