<?xml version="1.0" encoding="utf-8"?>
<!-- Generator: Adobe Illustrator 21.1.0, SVG Export Plug-In . SVG Version: 6.00 Build 0)  -->
<svg version="1.1" id="Sandcastle" xmlns="http://www.w3.org/2000/svg" xmlns:xlink="http://www.w3.org/1999/xlink" x="0px" y="0px"
	 viewBox="0 0 205 215.9" style="enable-background:new 0 0 205 215.9;" xml:space="preserve">
<style type="text/css">
	.st0{fill:none;}
	.st1{fill:#FFFFFF;}
</style>
<title>sc_bg-black</title>
<circle class="st0" cx="48.3" cy="193.9" r="6"/>
<circle class="st0" cx="50.3" cy="171.9" r="4"/>
<circle class="st0" cx="30.3" cy="183.9" r="4"/>
<path class="st0" d="M138.3,115.9c-20.8,0-27.3,25-27.9,71.3c0,2.2,1.7,4,3.9,4.1c0.2,0,0.5,0,0.7-0.1c11.6-2.1,23.4-3.2,35.3-3.3
	c6.6,0,12.6,0.1,18,0.3c2.2,0,4-1.7,4.1-3.9c0-0.2,0-0.5-0.1-0.7C165.1,139.6,158.6,115.9,138.3,115.9z"/>
<path class="st1" d="M203.4,196.8c-24.4-28.1-21.3-77.4-32.5-137.6c-0.3-1.9-2-3.3-4-3.3h-17.1c-2,0-3.7,1.5-4,3.5l-1.1,9
	c-0.3,2-2,3.5-4,3.5h-15.3c-1.8,0-3.4-1.2-3.9-3l-2.5-9.9c-0.5-1.8-2.1-3-3.9-3H89.4c-1.8,0-3.4,1.2-3.9,3l-2.5,9.9
	c-0.5,1.8-2.1,3-3.9,3H63.8c-2,0-3.7-1.5-4-3.5l-1.1-9c-0.3-2-2-3.5-4-3.5H37.6c-2,0-3.7,1.4-4,3.3c-11,59.6-8.1,108.5-31.7,136.8
	c-2.1,2.6-2.5,6.1-1,9.1c1,2,2.7,3.5,4.7,4.2c6.3,2.3,21.8,6.6,48.7,6.6c36.5,0,59.7-12,96-12c25.4,0,40.7,2,47.6,3.1
	c2.6,0.4,5.3-0.9,6.4-3.3v-0.1C205.5,201.4,205.1,198.7,203.4,196.8z M30.3,187.9c-2.2,0-4-1.8-4-4s1.8-4,4-4s4,1.8,4,4
	S32.5,187.9,30.3,187.9z M48.3,199.9c-3.3,0-6-2.7-6-6s2.7-6,6-6s6,2.7,6,6S51.6,199.9,48.3,199.9z M50.3,175.9c-2.2,0-4-1.8-4-4
	s1.8-4,4-4s4,1.8,4,4S52.5,175.9,50.3,175.9z M168.3,188.3c-5.4-0.2-11.3-0.3-18-0.3c-11.8,0.1-23.6,1.2-35.3,3.3
	c-2.2,0.4-4.2-1.1-4.6-3.3c0-0.2-0.1-0.5-0.1-0.7c0.7-46.2,7.1-71.3,27.9-71.3c20.3,0,26.8,23.6,34,67.7c0.4,2.2-1.1,4.2-3.3,4.6
	C168.8,188.2,168.5,188.3,168.3,188.3z"/>
<path class="st1" d="M99.8,47.9h5c0.8,0,1.5-0.6,1.5-1.4c0,0,0,0,0,0V30.6c13.8,1.9,27.7,1.6,41.4-0.7c0.8-0.2,1.4-0.9,1.2-1.8
	c0-0.3-0.2-0.5-0.3-0.7c-3.2-3.7-6.4-6.3-9.6-10.3c-0.4-0.5-0.4-1.2-0.1-1.8c3.2-4.6,6.3-8.2,9.5-13c0.4-0.7,0.2-1.6-0.4-2
	c-0.3-0.2-0.7-0.3-1-0.2c-15.3,2.6-31,2.6-46.3-0.1c-1.1-0.2-2.1,0.6-2.3,1.6c0,0.1,0,0.2,0,0.3v44.5C98.3,47.3,99,47.9,99.8,47.9z"
	/>
</svg>
