<?xml version="1.0" encoding="utf-8"?>
<!-- Generator: Adobe Illustrator 18.0.0, SVG Export Plug-In . SVG Version: 6.00 Build 0)  -->
<!DOCTYPE svg PUBLIC "-//W3C//DTD SVG 1.1//EN" "http://www.w3.org/Graphics/SVG/1.1/DTD/svg11.dtd">
<svg version="1.1" id="Layer_1" xmlns="http://www.w3.org/2000/svg" xmlns:xlink="http://www.w3.org/1999/xlink" x="0px" y="0px"
	 viewBox="0 240 650.3 699.8" enable-background="new 0 240 650.3 699.8" xml:space="preserve">
<path fill="#824E63" d="M6.7,240l3.2,685.5c0,8.8,14.6,16,23,13.9l299.2-70.3c2.1-0.5,4.2-0.5,6.3,0l287.3,67.9
	c8.5,2.1,16.6-4.4,16.6-13.1V240H6.7z"/>
<path fill="#FFFFFF" d="M28.9,318.4v581.1c0,11.7,10.9,20.3,22.3,17.6l290.2-69.5c2.8-0.6,5.7-0.6,8.4,0l288.6,69.5
	c11.4,2.7,11.9-5.9,11.9-17.6V240H28.9V318.4z"/>
<g>
	<path fill="#824E63" d="M94,708.9v-44.1H77.6v-7h37.3c2.7,0,2.7,2.4,2.7,7h-16.5v44.1H94z"/>
	<path fill="#824E63" d="M150.3,689l8,10.3c2.5,3.2,4.8,4,8.1,4h1.3v1.4c0,3.5-3.3,4.9-6.3,4.9c-3.2,0-5.7-0.7-9.4-6l-8.7-12.3h-9
		v17.5H127v-47.2c0-3.8,1.3-3.8,7.2-3.8h9.7c10.1,0,18.5,5.4,18.5,15.2C162.5,681.4,158,686.7,150.3,689z M142.6,664.5h-8.3v20.3
		h9.1c6.1,0,11.6-3.8,11.6-10.5C154.9,667.3,149.2,664.5,142.6,664.5z"/>
	<path fill="#824E63" d="M211.5,708.9l-4-11.1H184c-1.3,3.7-2.4,7.5-3.5,11.1h-8.3c5-15.1,11.4-30.8,18.1-43.5
		c1.2-2.4,1.5-4.2,1-5.7c2.8-1.6,5.5-2.3,8.5-2.5l20.1,50.7v1H211.5z M196.5,667.8c-3.6,7.3-7.1,15.3-10.1,23.4h18.7L196.5,667.8z"
		/>
	<path fill="#824E63" d="M245.9,708.9h-4c-8.8,0-13-3.6-13-13.2v-31h-4.1c0-4.5,0-6.9,2.6-6.9h19.4c13.8,0,24.8,7.8,24.8,23.9
		C271.7,698.3,260,708.9,245.9,708.9z M236.1,664.8V695c0,4.6,1.8,7.1,6.6,7.1h3c9.8,0,18.4-7,18.4-20.3c0-12.3-8.3-17-18.4-17
		H236.1z"/>
	<path fill="#824E63" d="M283,708.9v-47.6c0-3.8,1.3-3.8,7.2-3.8v51.4H283z"/>
	<path fill="#824E63" d="M338.8,709.7l-28.1-39.3v38.6h-7.1v-49.3c2.2-1.4,4.4-2.1,6.9-2.3l28.1,38.9v-38.4h7.1v49.5
		C343.6,708.8,341.4,709.4,338.8,709.7z"/>
	<path fill="#824E63" d="M397,693.3v9.1c0,5.5-9,7.3-15.5,7.3c-15,0-24.4-10.3-24.4-27.8c0-14.5,10.1-24.8,24.9-24.8
		c10.4,0,17.4,4.8,17.4,11.7c0,3.6-2.2,6.1-4.7,6.1h-2.5v-1.7c0-5.7-4-9.2-10.5-9.2c-10.5,0-17,7.8-17,18c0,12,5.7,21.1,19.1,21.1
		c2.1,0,4.1-0.3,6-0.9v-11.6c0-3.8,1.1-3.8,7.2-3.8h7.5v6.6H397z"/>
	<path fill="#824E63" d="M444.5,691.8h-4.8v17.1h-7.2v-47.2c0-3.8,1.3-3.8,7.2-3.8h6c12.4,0,21.2,4,21.2,16
		C466.9,685.4,457.4,691.8,444.5,691.8z M445.6,664.5h-5.9v20.8h4.9c8.6,0,14.8-3.8,14.8-11.4C459.4,666.2,452.2,664.5,445.6,664.5z
		"/>
	<path fill="#824E63" d="M499.2,709.7c-14,0-24-12.1-24-27.8c0-15.6,9.7-24.8,24-24.8c14.4,0,24.2,9.2,24.2,24.8
		C523.4,697.6,513.4,709.7,499.2,709.7z M499.2,663.8c-9.9,0-16.3,6.8-16.3,18.1c0,12.2,6.7,20.9,16.3,20.9
		c9.8,0,16.6-8.3,16.6-20.9C515.8,670.3,509.3,663.8,499.2,663.8z"/>
	<path fill="#824E63" d="M546.9,709.7c-6.2,0-12.3-1.7-12.3-7.2v-2.9c3.4,1.7,7.6,3,12,3c5.2,0,9.9-2,9.9-6.8c0-10-24-5.4-24-22.6
		c0-10.1,7.5-16.1,17.8-16.1c8.7,0,15.4,4.8,15.4,10.6c0,4.1-2.3,5.6-4.7,5.6h-2v-1.7c0-4.2-3.3-7.7-9.3-7.7c-5.8,0-9.7,3.2-9.7,7.9
		c0,12.3,24.1,7.1,24.1,23C564.1,704.7,556.1,709.7,546.9,709.7z"/>
	<path fill="#824E63" d="M589.2,708.9v-44.1h-16.4v-7h37.3c2.7,0,2.7,2.4,2.7,7h-16.5v44.1H589.2z"/>
</g>
<g>
	<path fill="#824E63" d="M273,767v-25.4c-3.2,7.2-6.6,13.5-11,20.4c-0.9,0.4-1.9,0.6-2.8,0.6c-4.4-7-7.9-13.7-11-21v25.2h-2.6v-29.4
		c1-0.6,2.2-0.7,3.4-0.8c3.2,7.2,7,15.3,11.6,22.8c4.8-8,8-14.5,11.4-21.9c1.1-0.7,2.2-0.8,3.6-0.9v28.5
		C275.6,766.9,275.5,767,273,767z"/>
	<path fill="#824E63" d="M310.9,766.8l-2.9-7.4h-15.4c-0.8,2.4-1.6,4.9-2.4,7.4h-3.1c3-9.6,6.6-18.2,11.2-27c0.5-1,0.7-1.8,0.5-2.5
		c1.1-0.7,2.2-0.9,3.3-1l12,30.1v0.4H310.9z M300.9,740.5c-2.9,5.5-5.2,10.8-7.3,16.3h13.6L300.9,740.5z"/>
	<path fill="#824E63" d="M337.1,755l6.1,7.4c1.3,1.6,2.5,2.2,4.2,2.2h0.6v0.6c0,1.4-1.3,2-2.4,2c-1.8,0-3-0.5-4.8-2.9l-6.5-8.4h-6.3
		v11h-2.8v-28.6c0-1.5,0.5-1.5,2.8-1.5h6.4c5.5,0,10.6,2.8,10.6,8.9C345.1,750.9,341.6,753.9,337.1,755z M334,739.3h-5.9v13.9h5.9
		c4.1,0,8.2-2.4,8.2-7.2C342.2,741.1,338.1,739.3,334,739.3z"/>
	<path fill="#824E63" d="M381,765.2c0,1.4-1.2,2-2.4,2c-2,0-3.3-0.6-5.1-3.2l-8-10.4h-4.2v13.2h-2.8v-28.8c0-1.5,0.5-1.5,2.8-1.5
		V751h3.9c4.2-3.8,8.5-9.6,11.5-14.3h3.1v0.4c-3.2,4.9-7.4,10.3-12.2,14.9l8.2,10.2c1.4,1.8,2.7,2.4,4.6,2.4h0.6V765.2z"/>
	<path fill="#824E63" d="M409.6,766.8h-11.5c-4.4,0-6-1.6-6-6v-22.6c0-1.5,0.4-1.5,2.8-1.5h13.4c1,0,1,0.9,1,2.7h-14.4v11.5h11.8
		v2.6h-11.8v7c0,2.5,1,3.6,3.7,3.6h11V766.8z"/>
	<path fill="#824E63" d="M429.4,766.8v-27.4h-10.2v-2.7h22.1c1.1,0,1.1,0.9,1.1,2.7h-10.3v27.4H429.4z"/>
</g>
<g>
	<g>
		
			<path fill="none" stroke="#824E63" stroke-width="7.4429" stroke-linecap="round" stroke-linejoin="round" stroke-miterlimit="10" d="
			M298.8,510.8"/>
	</g>
	<g>
		<path fill="#824E63" d="M370.1,517.4c-2,0-3.6-1.6-3.7-3.6l-0.5-12.7l-43.2-27.2c-1.7-1.1-2.3-3.4-1.2-5.1
			c1.1-1.7,3.4-2.3,5.1-1.2l44.9,28.2c1,0.7,1.7,1.8,1.7,3l0.6,14.7c0.1,2.1-1.5,3.8-3.6,3.9C370.2,517.4,370.1,517.4,370.1,517.4z"
			/>
	</g>
	<g>
		<path fill="#824E63" d="M300,605.7c-0.5,0-0.9-0.1-1.4-0.3l-114.9-47.1c-1.4-0.6-2.3-1.9-2.3-3.4l-0.2-53.2c0-2.1,1.7-3.7,3.7-3.7
			c0,0,0,0,0,0c2,0,3.7,1.7,3.7,3.7l0.2,50.7l112.6,46.1c1.9,0.8,2.8,3,2,4.9C302.9,604.9,301.5,605.7,300,605.7z M312.9,605.3
			c-1.8,0-3.3-1.3-3.7-3c-0.4-2,1-4,3-4.3l79.2-14.6v-37.1c0-2.1,1.7-3.7,3.7-3.7s3.7,1.7,3.7,3.7v40.2c0,1.8-1.3,3.3-3,3.7
			l-82.2,15.1C313.4,605.3,313.2,605.3,312.9,605.3z M427.5,584c-0.8,0-1.7-0.3-2.4-0.8c-0.9-0.7-1.4-1.8-1.4-2.9v-48.2l-28.2,3.5
			c-2,0.3-3.9-1.2-4.2-3.2c-0.3-2,1.2-3.9,3.2-4.2l32.4-4c1.1-0.1,2.1,0.2,2.9,0.9c0.8,0.7,1.3,1.7,1.3,2.8v47.8l51.5-10.6v-58.5
			c0-2,1.5-3.6,3.5-3.7l30.5-1.8v-8.8c0-2.1,1.7-3.7,3.7-3.7s3.7,1.7,3.7,3.7v12.3c0,2-1.5,3.6-3.5,3.7l-30.5,1.8v58
			c0,1.8-1.2,3.3-3,3.6l-59,12.1C428,583.9,427.8,584,427.5,584z M185.1,490.9c-1.7,0-3.2-1.1-3.6-2.8c-0.5-2,0.7-4,2.7-4.5
			l107-26.6v-54.2c0-2.1,1.7-3.7,3.7-3.7s3.7,1.7,3.7,3.7v57.2c0,1.7-1.2,3.2-2.8,3.6L186,490.8
			C185.7,490.9,185.4,490.9,185.1,490.9z M516.7,485.7c-0.6,0-1.2-0.1-1.7-0.4l-30.2-16c-0.1,0-0.2-0.1-0.3-0.1
			c-0.4-0.3-0.8-0.6-1.1-1c-0.3-0.4-0.5-0.9-0.6-1.4c0-0.1,0-0.2,0-0.3l-7.7-58.8l-166.7-22.7l-13.1,5c-1.9,0.7-4.1-0.2-4.8-2.1
			c-0.7-1.9,0.2-4.1,2.1-4.8l14-5.3c0.6-0.2,1.2-0.3,1.8-0.2l170.4,23.3c0.3,0,0.6,0.1,0.9,0.2c0.5,0.2,1,0.5,1.3,0.9
			c0.4,0.4,0.7,0.9,0.9,1.4c0.1,0.3,0.2,0.6,0.2,0.8l7.8,59.7l28.5,15.1c1.8,1,2.5,3.2,1.5,5C519.4,485,518.1,485.7,516.7,485.7z
			 M439.8,446.4c-0.1,0-0.2,0-0.3,0l-79-6.2c-1.9-0.1-3.4-1.7-3.4-3.6l-0.6-14c-0.1-2.1,1.5-3.8,3.6-3.9c2.1-0.1,3.8,1.5,3.9,3.6
			l0.4,10.7l71.4,5.6l-1.2-15.5l-74.2-8.5c-2-0.2-3.5-2.1-3.3-4.1c0.2-2,2.1-3.5,4.1-3.3l77.3,8.9c1.8,0.2,3.1,1.6,3.3,3.4l1.7,22.9
			c0.1,1.1-0.3,2.1-1.1,2.9C441.7,446,440.8,446.4,439.8,446.4z"/>
	</g>
	<g>
		<path fill="#824E63" d="M370.1,517.4c-2,0-3.6-1.5-3.7-3.5c-0.1-2.1,1.4-3.8,3.5-3.9l150.4-9.1c2.1-0.1,3.8,1.4,3.9,3.5
			c0.1,2.1-1.4,3.8-3.5,3.9l-150.4,9.1C370.2,517.4,370.1,517.4,370.1,517.4z"/>
	</g>
	<g>
		<path fill="#824E63" d="M385.4,502c-2,0-3.6-1.6-3.7-3.6c-0.1-2.1,1.5-3.8,3.6-3.9l135.1-6c2-0.1,3.8,1.5,3.9,3.6
			c0.1,2.1-1.5,3.8-3.6,3.9l-135.1,6C385.5,502,385.4,502,385.4,502z"/>
	</g>
	<g>
		<path fill="#824E63" d="M300,605.7c-2,0-3.7-1.6-3.7-3.7l-1.2-124.3c0-2.1,1.6-3.7,3.7-3.8c0,0,0,0,0,0c2,0,3.7,1.6,3.7,3.7
			l1.2,124.3C303.8,604,302.1,605.7,300,605.7C300,605.7,300,605.7,300,605.7z"/>
	</g>
	<g>
		<path fill="#824E63" d="M471.6,469.2c0,0-0.1,0-0.1,0L307.9,464c-2-0.1-3.6-1.7-3.6-3.7v-64.8c0-2.1,1.7-3.7,3.7-3.7
			s3.7,1.7,3.7,3.7v61.2l160,5.1c2.1,0.1,3.7,1.8,3.6,3.8C475.3,467.6,473.6,469.2,471.6,469.2z"/>
	</g>
	<g>
		
			<path fill="none" stroke="#824E63" stroke-width="7.4429" stroke-linecap="round" stroke-linejoin="round" stroke-miterlimit="10" d="
			M480.7,421.5"/>
	</g>
	<g>
		<path fill="#824E63" d="M506.3,467.9c-2.1,0-3.7-1.7-3.7-3.7v-6.2c0-2.1,1.7-3.7,3.7-3.7h24.1L515.1,425c-0.6-1.2-0.6-2.5,0.1-3.7
			c0.7-1.1,1.9-1.8,3.2-1.8h9l-23.8-31.7c-0.8-1.1-1-2.6-0.4-3.9c0.6-1.3,1.9-2.1,3.3-2.1h8.5l-22.7-26.4L469.7,382h8.5
			c2.1,0,3.7,1.7,3.7,3.7s-1.7,3.7-3.7,3.7h-16.6c-1.5,0-2.8-0.8-3.4-2.2c-0.6-1.3-0.4-2.9,0.6-4l30.8-35.8c0.7-0.8,1.7-1.3,2.8-1.3
			c1.1,0,2.1,0.5,2.8,1.3l30.8,35.8c0.9,1.1,1.2,2.7,0.6,4c-0.6,1.3-1.9,2.2-3.4,2.2H514l23.8,31.7c0.8,1.1,1,2.6,0.4,3.9
			s-1.9,2.1-3.3,2.1h-10.3l15.4,29.2c0.6,1.2,0.6,2.5-0.1,3.7c-0.7,1.1-1.9,1.8-3.2,1.8H510v2.5C510,466.2,508.3,467.9,506.3,467.9z
			"/>
	</g>
	<g>
		<path fill="#824E63" d="M173.7,510.9h-19c-1.3,0-2.5-0.7-3.2-1.8c-0.7-1.1-0.7-2.5-0.1-3.7l15.4-29.2h-10.3
			c-1.4,0-2.7-0.8-3.3-2.1c-0.6-1.3-0.5-2.8,0.4-3.9l23.8-31.7h-9.2c-1.5,0-2.8-0.8-3.4-2.2c-0.6-1.3-0.4-2.9,0.6-4l30.8-35.8
			c0.7-0.8,1.7-1.3,2.8-1.3s2.1,0.5,2.8,1.3l30.8,35.8c0.9,1.1,1.2,2.7,0.6,4c-0.6,1.3-1.9,2.2-3.4,2.2h-9.2l16.4,21.9
			c1.2,1.6,0.9,4-0.7,5.2c-1.6,1.2-4,0.9-5.2-0.7l-20.9-27.8c-0.8-1.1-1-2.6-0.4-3.9c0.6-1.3,1.9-2.1,3.3-2.1h8.5l-22.7-26.4
			l-22.7,26.4h8.5c1.4,0,2.7,0.8,3.3,2.1c0.6,1.3,0.5,2.8-0.4,3.9l-23.8,31.7h9c1.3,0,2.5,0.7,3.2,1.8c0.7,1.1,0.7,2.5,0.1,3.7
			l-15.4,29.2h12.8c2.1,0,3.7,1.7,3.7,3.7S175.7,510.9,173.7,510.9z"/>
	</g>
	<g>
		<path fill="#824E63" d="M250.2,461.7c-0.6,0-1.2-0.1-1.7-0.4c-1.8-1-2.5-3.2-1.6-5l15.4-29.2h-10.3c-1.4,0-2.7-0.8-3.3-2.1
			c-0.6-1.3-0.5-2.8,0.4-3.9l23.8-31.7h-9.2c-1.5,0-2.8-0.8-3.4-2.2c-0.6-1.3-0.4-2.9,0.6-4l30.8-35.8c0.7-0.8,1.7-1.3,2.8-1.3
			s2.1,0.5,2.8,1.3l18.5,21.5c1.3,1.6,1.2,3.9-0.4,5.2c-1.6,1.3-3.9,1.2-5.2-0.4l-15.6-18.2L271.8,382h8.5c1.4,0,2.7,0.8,3.3,2.1
			c0.6,1.3,0.5,2.8-0.4,3.9l-23.8,31.7h9c1.3,0,2.5,0.7,3.2,1.8c0.7,1.1,0.7,2.5,0.1,3.7l-18.2,34.6
			C252.9,460.9,251.6,461.7,250.2,461.7z"/>
	</g>
</g>
<g>
	
		<path fill="none" stroke="#5F755C" stroke-width="7.9115" stroke-linecap="round" stroke-linejoin="round" stroke-miterlimit="10" d="
		M306.4,541.4"/>
</g>
<g>
	
		<path fill="none" stroke="#5F755C" stroke-width="7.9115" stroke-linecap="round" stroke-linejoin="round" stroke-miterlimit="10" d="
		M460.2,465.8"/>
</g>
</svg>
