<?xml version="1.0" encoding="utf-8"?>
<!-- Generator: Adobe Illustrator 21.1.0, SVG Export Plug-In . SVG Version: 6.00 Build 0)  -->
<svg version="1.1" id="Layer_1" xmlns="http://www.w3.org/2000/svg" xmlns:xlink="http://www.w3.org/1999/xlink" x="0px" y="0px"
	 viewBox="0 0 825.3 1356.7" style="enable-background:new 0 0 825.3 1356.7;" xml:space="preserve">
<style type="text/css">
	.st0{fill:#444444;}
	.st1{fill:#FFFFFF;}
	.st2{fill:none;stroke:#5F755C;stroke-width:7.9115;stroke-linecap:round;stroke-linejoin:round;stroke-miterlimit:10;}
	.st3{fill:none;stroke:#444444;stroke-width:11;stroke-linecap:round;stroke-linejoin:round;stroke-miterlimit:10;}
</style>
<path class="st0" d="M10,175.1l4,1154.5c0,11,10.3,19.1,20.9,16.5l381.9-91.3c2.6-0.6,5.3-0.6,7.9,0l362.9,89.3
	c10.7,2.6,20.9-5.5,20.9-16.5V175.1H10z"/>
<path class="st1" d="M29.7,571.1v730c0,14.7,13.7,25.5,28,22.1l364.5-87.3c3.5-0.8,7.1-0.8,10.6,0l364.5,87.3
	c14.3,3.4,28-7.4,28-22.1v-1130H29.7V571.1z"/>
<g>
	<path class="st0" d="M139.8,1061.6v-50.5H121v-8h42.8c3.1,0,3.1,2.7,3.1,8H148v50.5H139.8z"/>
	<path class="st0" d="M204.3,1038.8l9.2,11.8c2.8,3.7,5.5,4.6,9.3,4.6h1.5v1.6c0,4-3.8,5.6-7.2,5.6c-3.7,0-6.5-0.8-10.7-6.9
		l-10-14.1h-10.3v20.1h-8.3v-54.1c0-4.4,1.5-4.4,8.3-4.4h11.2c11.6,0,21.2,6.2,21.2,17.4C218.3,1030,213.2,1036,204.3,1038.8z
		 M195.5,1010.6H186v23.2h10.4c7,0,13.3-4.4,13.3-12.1C209.6,1013.8,203,1010.6,195.5,1010.6z"/>
	<path class="st0" d="M274.4,1061.6l-4.6-12.7h-26.9c-1.5,4.3-2.7,8.5-4,12.7h-9.5c5.7-17.3,13.1-35.2,20.7-49.8
		c1.4-2.7,1.7-4.8,1.1-6.5c3.2-1.8,6.4-2.6,9.7-2.8l23.1,58.1v1.1L274.4,1061.6L274.4,1061.6z M257.2,1014.4
		c-4.2,8.4-8.1,17.5-11.5,26.8h21.4L257.2,1014.4z"/>
	<path class="st0" d="M313.8,1061.6h-4.5c-10.1,0-14.9-4.1-14.9-15.1V1011h-4.7c0-5.2,0-7.9,3-7.9h22.2c15.8,0,28.4,8.9,28.4,27.3
		C343.3,1049.4,329.9,1061.6,313.8,1061.6z M302.6,1011v34.6c0,5.3,2.1,8.1,7.5,8.1h3.4c11.3,0,21.1-8,21.1-23.2
		c0-14.1-9.5-19.4-21.1-19.4L302.6,1011L302.6,1011z"/>
	<path class="st0" d="M356.3,1061.6v-54.5c0-4.4,1.5-4.4,8.3-4.4v58.8L356.3,1061.6L356.3,1061.6z"/>
	<path class="st0" d="M420.2,1062.4l-32.2-45.1v44.2h-8.2V1005c2.5-1.6,5.1-2.4,7.9-2.6l32.2,44.6v-43.9h8.2v56.6
		C425.7,1061.4,423.1,1062.1,420.2,1062.4z"/>
	<path class="st0" d="M486.9,1043.7v10.4c0,6.3-10.3,8.4-17.8,8.4c-17.2,0-28-11.8-28-31.9c0-16.6,11.5-28.4,28.5-28.4
		c11.9,0,20,5.4,20,13.3c0,4.1-2.5,7-5.4,7h-2.8v-2c0-6.5-4.5-10.5-12.1-10.5c-12.1,0-19.4,9-19.4,20.6c0,13.8,6.5,24.1,21.9,24.1
		c2.5,0,4.7-0.4,6.9-1v-13.3c0-4.4,1.3-4.4,8.3-4.4h8.6v7.5h-8.7V1043.7z"/>
	<path class="st0" d="M541.2,1041.9h-5.5v19.6h-8.3v-54.1c0-4.4,1.5-4.4,8.3-4.4h6.9c14.3,0,24.3,4.6,24.3,18.3
		C566.9,1034.6,556,1041.9,541.2,1041.9z M542.5,1010.6h-6.8v23.9h5.6c9.8,0,17-4.4,17-13.1C558.3,1012.6,550.1,1010.6,542.5,1010.6
		z"/>
	<path class="st0" d="M604,1062.5c-16.1,0-27.5-13.9-27.5-31.9c0-17.9,11.2-28.4,27.5-28.4c16.5,0,27.7,10.5,27.7,28.4
		C631.7,1048.6,620.2,1062.5,604,1062.5z M604,1009.8c-11.3,0-18.7,7.8-18.7,20.8c0,14,7.6,24,18.7,24c11.3,0,19-9.5,19-24
		C623,1017.3,615.5,1009.8,604,1009.8z"/>
	<path class="st0" d="M658.5,1062.5c-7.1,0-14.1-2-14.1-8.3v-3.4c3.9,2,8.7,3.4,13.8,3.4c5.9,0,11.3-2.3,11.3-7.8
		c0-11.4-27.5-6.2-27.5-25.9c0-11.6,8.6-18.4,20.4-18.4c10,0,17.6,5.4,17.6,12.2c0,4.7-2.6,6.4-5.4,6.4h-2.3v-2
		c0-4.8-3.8-8.8-10.6-8.8c-6.6,0-11.2,3.7-11.2,9.1c0,14.1,27.6,8.1,27.6,26.3C678.3,1056.7,669.1,1062.5,658.5,1062.5z"/>
	<path class="st0" d="M707,1061.6v-50.5h-18.8v-8H731c3.1,0,3.1,2.7,3.1,8h-18.9v50.5H707z"/>
</g>
<g>
	<path class="st0" d="M344.8,1128v-29c-3.7,8.3-7.6,15.5-12.6,23.4c-1,0.4-2.2,0.6-3.2,0.6c-5-8-9-15.7-12.6-24v28.8h-3v-33.7
		c1.1-0.6,2.5-0.9,3.9-1c3.6,8.3,8,17.5,13.3,26.2c5.5-9.2,9.2-16.6,13.1-25.1c1.3-0.8,2.6-1,4.1-1v32.6
		C347.8,1128,347.7,1128,344.8,1128z"/>
	<path class="st0" d="M388.3,1127.9l-3.3-8.5h-17.6c-1,2.8-1.9,5.6-2.7,8.5H361c3.4-11,7.5-20.8,12.8-31c0.5-1.1,0.8-2.1,0.5-2.8
		c1.2-0.8,2.5-1.1,3.8-1.1l13.7,34.5v0.5L388.3,1127.9L388.3,1127.9z M376.7,1097.7c-3.3,6.3-6,12.3-8.4,18.6H384L376.7,1097.7z"/>
	<path class="st0" d="M418.3,1114.3l7,8.5c1.4,1.9,2.8,2.5,4.8,2.5h0.7v0.7c0,1.6-1.4,2.3-2.7,2.3c-2.1,0-3.4-0.5-5.5-3.4l-7.4-9.6
		H408v12.6h-3.2v-32.8c0-1.7,0.5-1.7,3.2-1.7h7.3c6.3,0,12.1,3.2,12.1,10.2C427.4,1109.6,423.5,1113.1,418.3,1114.3z M414.7,1096.3
		H408v16h6.8c4.7,0,9.4-2.7,9.4-8.3C424.1,1098.4,419.5,1096.3,414.7,1096.3z"/>
	<path class="st0" d="M468.6,1126c0,1.6-1.4,2.3-2.7,2.3c-2.3,0-3.8-0.7-5.9-3.6l-9.2-11.9H446v15.2h-3.2v-33c0-1.7,0.5-1.7,3.2-1.7
		v16.5h4.5c4.8-4.4,9.8-11,13.1-16.3h3.6v0.5c-3.6,5.6-8.5,11.8-13.9,17l9.4,11.7c1.6,2.1,3.1,2.7,5.3,2.7h0.6V1126z"/>
	<path class="st0" d="M501.3,1127.9h-13.1c-5.1,0-6.9-1.8-6.9-6.9v-25.9c0-1.7,0.5-1.7,3.2-1.7h15.3c1.2,0,1.2,1,1.2,3.1h-16.5v13.2
		h13.6v3h-13.6v8c0,2.9,1.2,4.1,4.2,4.1h12.6L501.3,1127.9L501.3,1127.9z"/>
	<path class="st0" d="M523.9,1127.9v-31.4h-11.6v-3.1h25.3c1.2,0,1.2,1,1.2,3.1H527v31.4H523.9z"/>
</g>
<g>
	<path class="st2" d="M378.3,851.2"/>
</g>
<g>
	<path class="st2" d="M571.5,756.3"/>
</g>
<g>
	<path class="st3" d="M368.2,816.6"/>
	<polyline class="st3" points="400.9,765.7 457.9,801.6 458.6,820.2 	"/>
	<path class="st3" d="M363.2,679.4V752l-139.4,34.7 M596.1,681.4l-216.4-29.5l-17.7,6.8 M606.4,759.7l-10.3-78.3 M644.8,780.1
		l-38.4-20.4 M490.5,843.4l41.1-5.1v66.5l74.9-15.4v-78.1l43.2-2.6v-15.6 M386.1,931.9l104.4-19.2v-51.1 M223.6,805.2l0.2,67.5
		l145.9,59.7 M446.8,689.8l98.1,11.3l2.2,29.1l-100.4-7.9l-0.7-17.8"/>
	<line class="st3" x1="458.6" y1="820.2" x2="649.6" y2="808.7"/>
	<line class="st3" x1="478" y1="800.7" x2="649.6" y2="793.1"/>
	<line class="st3" x1="369.7" y1="932.5" x2="368.2" y2="774.6"/>
	<polyline class="st3" points="379.7,670.2 379.7,752.4 587.5,759.1 	"/>
	<path class="st3" d="M599,703.2"/>
	<polyline class="st3" points="595.9,657.8 574.8,657.8 613.9,612.3 652.9,657.8 631.9,657.8 667.7,705.5 646.9,705.5 670,749.5 
		631.5,749.5 631.5,757.4 	"/>
	<polyline class="st3" points="285.7,755.6 259.2,720.3 280.3,720.3 241.2,674.8 202.2,720.3 223.2,720.3 187.4,768 208.2,768 
		185.1,812 209.2,812 	"/>
	<polyline class="st3" points="386,639.6 362.6,612.3 323.5,657.8 344.6,657.8 308.7,705.5 329.6,705.5 306.5,749.5 	"/>
</g>
</svg>
