<?xml version="1.0" encoding="utf-8"?>
<!-- Generator: Adobe Illustrator 21.1.0, SVG Export Plug-In . SVG Version: 6.00 Build 0)  -->
<svg version="1.1" id="Layer_1" xmlns="http://www.w3.org/2000/svg" xmlns:xlink="http://www.w3.org/1999/xlink" x="0px" y="0px"
	 viewBox="0 0 825.3 1356.7" style="enable-background:new 0 0 825.3 1356.7;" xml:space="preserve">
<style type="text/css">
	.st0{fill:#967F66;}
	.st1{fill:#FFFFFF;}
	.st2{fill:#CAC2B9;}
	.st3{fill:none;stroke:#5F755C;stroke-width:7.9115;stroke-linecap:round;stroke-linejoin:round;stroke-miterlimit:10;}
</style>
<path class="st0" d="M10,175.1l4,1154.5c0,11,10.3,19.1,20.9,16.5l381.9-91.3c2.6-0.6,5.3-0.6,7.9,0l362.9,89.3
	c10.7,2.6,20.9-5.5,20.9-16.5V175.1H10z"/>
<path class="st1" d="M29.7,571.1v730c0,14.7,13.7,25.5,28,22.1l364.5-87.3c3.5-0.8,7.1-0.8,10.6,0l364.5,87.3
	c14.3,3.4,28-7.4,28-22.1v-1130H29.7V571.1z"/>
<g>
	<path class="st0" d="M139.8,1061.6v-50.5H121v-8h42.8c3.1,0,3.1,2.7,3.1,8H148v50.5H139.8z"/>
	<path class="st0" d="M204.3,1038.8l9.2,11.8c2.8,3.7,5.5,4.6,9.3,4.6h1.5v1.6c0,4-3.8,5.6-7.2,5.6c-3.7,0-6.5-0.8-10.7-6.9
		l-10-14.1h-10.3v20.1h-8.3v-54.1c0-4.4,1.5-4.4,8.3-4.4h11.2c11.6,0,21.2,6.2,21.2,17.4C218.3,1030,213.2,1036,204.3,1038.8z
		 M195.5,1010.6H186v23.2h10.4c7,0,13.3-4.4,13.3-12.1C209.6,1013.8,203,1010.6,195.5,1010.6z"/>
	<path class="st0" d="M274.4,1061.6l-4.6-12.7h-26.9c-1.5,4.3-2.7,8.5-4,12.7h-9.5c5.7-17.3,13.1-35.2,20.7-49.8
		c1.4-2.7,1.7-4.8,1.1-6.5c3.2-1.8,6.4-2.6,9.7-2.8l23.1,58.1v1.1L274.4,1061.6L274.4,1061.6z M257.2,1014.4
		c-4.2,8.4-8.1,17.5-11.5,26.8h21.4L257.2,1014.4z"/>
	<path class="st0" d="M313.8,1061.6h-4.5c-10.1,0-14.9-4.1-14.9-15.1V1011h-4.7c0-5.2,0-7.9,3-7.9h22.2c15.8,0,28.4,8.9,28.4,27.3
		C343.3,1049.4,329.9,1061.6,313.8,1061.6z M302.6,1011v34.6c0,5.3,2.1,8.1,7.5,8.1h3.4c11.3,0,21.1-8,21.1-23.2
		c0-14.1-9.5-19.4-21.1-19.4L302.6,1011L302.6,1011z"/>
	<path class="st0" d="M356.3,1061.6v-54.5c0-4.4,1.5-4.4,8.3-4.4v58.8L356.3,1061.6L356.3,1061.6z"/>
	<path class="st0" d="M420.2,1062.4l-32.2-45.1v44.2h-8.2V1005c2.5-1.6,5.1-2.4,7.9-2.6l32.2,44.6v-43.9h8.2v56.6
		C425.7,1061.4,423.1,1062.1,420.2,1062.4z"/>
	<path class="st0" d="M486.9,1043.7v10.4c0,6.3-10.3,8.4-17.8,8.4c-17.2,0-28-11.8-28-31.9c0-16.6,11.5-28.4,28.5-28.4
		c11.9,0,20,5.4,20,13.3c0,4.1-2.5,7-5.4,7h-2.8v-2c0-6.5-4.5-10.5-12.1-10.5c-12.1,0-19.4,9-19.4,20.6c0,13.8,6.5,24.1,21.9,24.1
		c2.5,0,4.7-0.4,6.9-1v-13.3c0-4.4,1.3-4.4,8.3-4.4h8.6v7.5h-8.7V1043.7z"/>
	<path class="st0" d="M541.2,1041.9h-5.5v19.6h-8.3v-54.1c0-4.4,1.5-4.4,8.3-4.4h6.9c14.3,0,24.3,4.6,24.3,18.3
		C566.9,1034.6,556,1041.9,541.2,1041.9z M542.5,1010.6h-6.8v23.9h5.6c9.8,0,17-4.4,17-13.1C558.3,1012.6,550.1,1010.6,542.5,1010.6
		z"/>
	<path class="st0" d="M604,1062.5c-16.1,0-27.5-13.9-27.5-31.9c0-17.9,11.2-28.4,27.5-28.4c16.5,0,27.7,10.5,27.7,28.4
		C631.7,1048.6,620.2,1062.5,604,1062.5z M604,1009.8c-11.3,0-18.7,7.8-18.7,20.8c0,14,7.6,24,18.7,24c11.3,0,19-9.5,19-24
		C623,1017.3,615.5,1009.8,604,1009.8z"/>
	<path class="st0" d="M658.5,1062.5c-7.1,0-14.1-2-14.1-8.3v-3.4c3.9,2,8.7,3.4,13.8,3.4c5.9,0,11.3-2.3,11.3-7.8
		c0-11.4-27.5-6.2-27.5-25.9c0-11.6,8.6-18.4,20.4-18.4c10,0,17.6,5.4,17.6,12.2c0,4.7-2.6,6.4-5.4,6.4h-2.3v-2
		c0-4.8-3.8-8.8-10.6-8.8c-6.6,0-11.2,3.7-11.2,9.1c0,14.1,27.6,8.1,27.6,26.3C678.3,1056.7,669.1,1062.5,658.5,1062.5z"/>
	<path class="st0" d="M707,1061.6v-50.5h-18.8v-8H731c3.1,0,3.1,2.7,3.1,8h-18.9v50.5H707z"/>
</g>
<g>
	<path class="st2" d="M344.8,1128v-29c-3.7,8.3-7.6,15.5-12.6,23.4c-1,0.4-2.2,0.6-3.2,0.6c-5-8-9-15.7-12.6-24v28.8h-3v-33.7
		c1.1-0.6,2.5-0.9,3.9-1c3.6,8.3,8,17.5,13.3,26.2c5.5-9.2,9.2-16.6,13.1-25.1c1.3-0.8,2.6-1,4.1-1v32.6
		C347.8,1128,347.7,1128,344.8,1128z"/>
	<path class="st2" d="M388.3,1127.9l-3.3-8.5h-17.6c-1,2.8-1.9,5.6-2.7,8.5H361c3.4-11,7.5-20.8,12.8-31c0.5-1.1,0.8-2.1,0.5-2.8
		c1.2-0.8,2.5-1.1,3.8-1.1l13.7,34.5v0.5L388.3,1127.9L388.3,1127.9z M376.7,1097.7c-3.3,6.3-6,12.3-8.4,18.6H384L376.7,1097.7z"/>
	<path class="st2" d="M418.3,1114.3l7,8.5c1.4,1.9,2.8,2.5,4.8,2.5h0.7v0.7c0,1.6-1.4,2.3-2.7,2.3c-2.1,0-3.4-0.5-5.5-3.4l-7.4-9.6
		H408v12.6h-3.2v-32.8c0-1.7,0.5-1.7,3.2-1.7h7.3c6.3,0,12.1,3.2,12.1,10.2C427.4,1109.6,423.5,1113.1,418.3,1114.3z M414.7,1096.3
		H408v16h6.8c4.7,0,9.4-2.7,9.4-8.3C424.1,1098.4,419.5,1096.3,414.7,1096.3z"/>
	<path class="st2" d="M468.6,1126c0,1.6-1.4,2.3-2.7,2.3c-2.3,0-3.8-0.7-5.9-3.6l-9.2-11.9H446v15.2h-3.2v-33c0-1.7,0.5-1.7,3.2-1.7
		v16.5h4.5c4.8-4.4,9.8-11,13.1-16.3h3.6v0.5c-3.6,5.6-8.5,11.8-13.9,17l9.4,11.7c1.6,2.1,3.1,2.7,5.3,2.7h0.6V1126z"/>
	<path class="st2" d="M501.3,1127.9h-13.1c-5.1,0-6.9-1.8-6.9-6.9v-25.9c0-1.7,0.5-1.7,3.2-1.7h15.3c1.2,0,1.2,1,1.2,3.1h-16.5v13.2
		h13.6v3h-13.6v8c0,2.9,1.2,4.1,4.2,4.1h12.6L501.3,1127.9L501.3,1127.9z"/>
	<path class="st2" d="M523.9,1127.9v-31.4h-11.6v-3.1h25.3c1.2,0,1.2,1,1.2,3.1H527v31.4H523.9z"/>
</g>
<g>
	<path class="st3" d="M378.3,851.2"/>
</g>
<g>
	<path class="st3" d="M571.5,756.3"/>
</g>
<g>
	<g>
		<path class="st0" d="M369.2,944.3c-2.7,0-4.7-2.1-4.8-4.7l-1.6-160.1c0-2.7,2.1-4.8,4.7-4.8l0,0c2.7,0,4.7,2.1,4.8,4.7l1.6,160.1
			C374.1,942.1,371.9,944.3,369.2,944.3C369.3,944.3,369.2,944.3,369.2,944.3z"/>
	</g>
	<g>
		<path class="st0" d="M459.5,830.5c-2.5,0-4.7-2.1-4.8-4.6l-0.6-16.4l-55.6-35c-2.2-1.5-2.9-4.4-1.5-6.7c1.5-2.2,4.4-2.9,6.7-1.5
			l57.8,36.4c1.3,0.8,2.2,2.3,2.2,3.9l0.7,18.9c0.1,2.7-1.9,4.8-4.6,5C459.6,830.5,459.5,830.5,459.5,830.5z"/>
	</g>
	<g>
		<path class="st0" d="M369.2,944.3c-0.6,0-1.2-0.1-1.8-0.4l-147.9-60.6c-1.8-0.7-3-2.4-3-4.4l-0.2-68.5c0-2.7,2.2-4.8,4.7-4.8l0,0
			c2.7,0,4.7,2.2,4.8,4.7l0.2,65.3l145,59.4c2.4,1,3.6,3.8,2.7,6.3C373,943.2,371.2,944.3,369.2,944.3z M385.9,943.8
			c-2.3,0-4.2-1.6-4.7-3.9c-0.5-2.5,1.2-5.1,3.9-5.6l102-18.8v-47.9c0-2.7,2.2-4.8,4.8-4.8s4.8,2.2,4.8,4.8v51.7
			c0,2.3-1.7,4.2-3.9,4.7l-106.1,19.5C386.4,943.7,386.2,943.8,385.9,943.8z M533.5,916.3c-1.1,0-2.2-0.4-3-1.1
			c-1.1-1-1.8-2.3-1.8-3.8v-62l-36.4,4.5c-2.7,0.4-5-1.6-5.3-4.1c-0.4-2.7,1.6-5,4.1-5.3l41.7-5.2c1.3-0.1,2.8,0.2,3.8,1.2
			c1,1,1.6,2.2,1.6,3.6v61.6l66.4-13.7v-75.4c0-2.5,1.9-4.6,4.5-4.7l39.3-2.4v-11.3c0-2.7,2.2-4.8,4.8-4.8c2.7,0,4.8,2.2,4.8,4.8
			v15.8c0,2.5-1.9,4.6-4.5,4.7l-39.3,2.4v74.8c0,2.3-1.6,4.2-3.9,4.7l-76,15.6C534.1,916.2,533.8,916.3,533.5,916.3z M221.3,796.5
			c-2.2,0-4.1-1.5-4.6-3.6c-0.6-2.5,1-5.2,3.5-5.8L358,752.7v-69.9c0-2.7,2.2-4.8,4.8-4.8c2.7,0,4.8,2.2,4.8,4.8v73.7
			c0,2.2-1.5,4.1-3.6,4.6l-141.4,35.1C222,796.5,221.6,796.5,221.3,796.5z M648.4,789.8c-0.7,0-1.6-0.1-2.2-0.6l-38.9-20.6
			c-0.1,0-0.2-0.1-0.4-0.2c-0.6-0.4-1.1-0.8-1.5-1.3c-0.4-0.5-0.6-1.1-0.7-1.8c0-0.1,0-0.2,0-0.4l-9.9-75.7L380,659.8l-16.8,6.4
			c-2.4,1-5.2-0.2-6.2-2.8c-1-2.4,0.2-5.2,2.8-6.2l17.9-6.9c0.7-0.2,1.6-0.4,2.3-0.2L599.4,680c0.4,0,0.7,0.1,1.1,0.2
			c0.6,0.2,1.2,0.6,1.7,1.1s0.8,1.1,1.1,1.8c0.1,0.4,0.2,0.7,0.2,1.1l10.1,76.9l36.7,19.5c2.3,1.2,3.3,4.1,1.9,6.4
			C651.8,788.8,650.1,789.8,648.4,789.8z M549.3,739.2c-0.1,0-0.2,0-0.4,0l-101.8-8c-2.4-0.2-4.4-2.2-4.4-4.6l-0.7-18.1
			c-0.1-2.7,1.9-4.8,4.6-5c2.7-0.1,4.8,1.9,5,4.6l0.5,13.8l92,7.1l-1.6-20l-95.6-11c-2.7-0.2-4.5-2.7-4.2-5.3
			c0.2-2.7,2.7-4.5,5.3-4.2l99.6,11.5c2.3,0.2,4,2.1,4.2,4.4l2.3,29.4c0.1,1.5-0.4,2.8-1.5,3.8C551.7,738.6,550.5,739.2,549.3,739.2
			z"/>
	</g>
	<g>
		<path class="st0" d="M459.5,830.5c-2.5,0-4.6-1.9-4.7-4.5c-0.1-2.7,1.8-5,4.5-5.1L653,809.2c2.7-0.1,5,1.8,5.1,4.5
			c0.1,2.7-1.8,5-4.5,5.1l-193.7,11.8C459.6,830.5,459.6,830.5,459.5,830.5z"/>
	</g>
	<g>
		<path class="st0" d="M479.2,810.7c-2.5,0-4.7-2.1-4.7-4.6c-0.1-2.7,1.9-4.8,4.6-5l174-7.8c2.7-0.1,4.8,1.9,5,4.6
			c0.1,2.7-1.9,4.8-4.6,5l-174,7.8C479.4,810.7,479.2,810.7,479.2,810.7z"/>
	</g>
	<g>
		<path class="st0" d="M590.2,768.5L590.2,768.5l-210.8-6.8c-2.5-0.1-4.6-2.2-4.6-4.8v-83.5c0-2.7,2.2-4.8,4.8-4.8
			c2.7,0,4.8,2.2,4.8,4.8v78.8l206.1,6.7c2.7,0.1,4.7,2.3,4.6,5C595,766.4,592.8,768.5,590.2,768.5z"/>
	</g>
	<g>
		<path class="st0" d="M634.9,766.8c-2.7,0-4.8-2.2-4.8-4.8v-8c0-2.7,2.2-4.8,4.8-4.8h31.1l-19.8-37.6c-0.7-1.5-0.7-3.3,0.1-4.7
			c0.8-1.5,2.4-2.3,4.1-2.3h11.5l-30.7-40.8c-1.1-1.5-1.2-3.4-0.5-5c0.8-1.6,2.4-2.7,4.2-2.7h10.9l-29.2-33.9L587.7,656h10.9
			c2.7,0,4.8,2.2,4.8,4.8c0,2.7-2.2,4.8-4.8,4.8h-21.3c-1.8,0-3.5-1.1-4.4-2.8c-0.7-1.7-0.5-3.8,0.7-5.1l39.6-46.2
			c1-1.1,2.2-1.7,3.6-1.7s2.7,0.6,3.6,1.7l39.6,46.2c1.2,1.5,1.5,3.4,0.7,5.1c-0.7,1.7-2.4,2.8-4.4,2.8h-11.6l30.7,40.8
			c1.1,1.5,1.2,3.4,0.5,5c-0.8,1.6-2.4,2.7-4.2,2.7h-13.2l19.8,37.6c0.7,1.5,0.7,3.3-0.1,4.7c-0.8,1.5-2.4,2.3-4.1,2.3h-34.2v3.2
			C639.7,764.6,637.6,766.8,634.9,766.8z"/>
	</g>
	<g>
		<path class="st0" d="M206.5,822.2H182c-1.7,0-3.3-0.8-4.1-2.3c-0.8-1.5-1-3.3-0.1-4.7l19.8-37.6h-13.2c-1.8,0-3.5-1-4.2-2.7
			c-0.8-1.6-0.6-3.5,0.5-5l30.7-40.8h-11.8c-1.8,0-3.6-1.1-4.4-2.8c-0.7-1.7-0.5-3.8,0.7-5.1l39.6-46.2c1-1.1,2.2-1.7,3.6-1.7
			c1.5,0,2.7,0.6,3.6,1.7l39.6,46.2c1.2,1.5,1.5,3.4,0.7,5.1c-0.7,1.7-2.4,2.8-4.4,2.8h-11.9l21.2,28.2c1.6,2.1,1.2,5.1-1,6.7
			c-2.1,1.6-5.1,1.2-6.7-1l-26.9-35.9c-1.1-1.5-1.2-3.4-0.5-5c0.8-1.6,2.4-2.7,4.2-2.7h10.9L239,685.6l-29.2,33.9h10.9
			c1.8,0,3.5,1,4.2,2.7c0.8,1.6,0.6,3.5-0.5,5L193.8,768h11.5c1.7,0,3.3,0.8,4.1,2.3c0.8,1.5,1,3.3,0.1,4.7l-19.8,37.6h16.6
			c2.7,0,4.8,2.2,4.8,4.8C211.2,820.1,209.2,822.2,206.5,822.2z"/>
	</g>
	<g>
		<path class="st0" d="M305.1,758.8c-0.7,0-1.6-0.1-2.2-0.6c-2.3-1.2-3.3-4.1-2.1-6.4l19.8-37.6h-13.2c-1.8,0-3.5-1-4.2-2.7
			c-0.8-1.6-0.6-3.5,0.5-5l30.7-40.8h-11.8c-1.8,0-3.6-1.1-4.4-2.8c-0.7-1.7-0.5-3.8,0.7-5.1l39.6-46.2c1-1.1,2.2-1.7,3.6-1.7
			c1.5,0,2.7,0.6,3.6,1.7l23.7,27.6c1.7,2.1,1.5,5.1-0.5,6.8c-2.1,1.7-5.1,1.5-6.8-0.5l-20.1-23.4L333,656.2h10.9
			c1.8,0,3.5,1,4.2,2.7c0.8,1.6,0.6,3.5-0.5,5L317,704.6h11.5c1.7,0,3.3,0.8,4.1,2.3s1,3.3,0.1,4.7l-23.5,44.6
			C308.5,757.8,306.8,758.8,305.1,758.8z"/>
	</g>
</g>
</svg>
