<?xml version="1.0" encoding="utf-8"?>
<!-- Generator: Adobe Illustrator 18.0.0, SVG Export Plug-In . SVG Version: 6.00 Build 0)  -->
<!DOCTYPE svg PUBLIC "-//W3C//DTD SVG 1.1//EN" "http://www.w3.org/Graphics/SVG/1.1/DTD/svg11.dtd">
<svg version="1.1" id="Layer_1" xmlns="http://www.w3.org/2000/svg" xmlns:xlink="http://www.w3.org/1999/xlink" x="0px" y="0px"
	 viewBox="0 0 503.7 396.3" enable-background="new 0 0 503.7 396.3" xml:space="preserve">
<g>
	<path fill="#824E63" d="M15.4,341.4v-41.5H0v-6.6h35.1c2.5,0,2.5,2.3,2.5,6.6H22.1v41.5H15.4z"/>
	<path fill="#824E63" d="M68.4,322.7l7.5,9.7c2.4,3,4.5,3.8,7.6,3.8h1.2v1.3c0,3.3-3.1,4.6-5.9,4.6c-3,0-5.4-0.7-8.8-5.6l-8.2-11.6
		h-8.5v16.5h-6.9v-44.4c0-3.6,1.2-3.6,6.8-3.6h9.1c9.5,0,17.4,5.1,17.4,14.3C79.9,315.6,75.7,320.5,68.4,322.7z M61.2,299.6h-7.8
		v19.1h8.6c5.7,0,10.9-3.6,10.9-9.9C72.7,302.3,67.4,299.6,61.2,299.6z"/>
	<path fill="#824E63" d="M126,341.4l-3.8-10.4h-22.1c-1.2,3.5-2.3,7.1-3.3,10.4H89c4.7-14.2,10.7-29,17-40.9c1.1-2.3,1.4-4,0.9-5.4
		c2.6-1.5,5.2-2.2,8-2.4l18.9,47.7v0.9H126z M111.9,302.8c-3.4,6.9-6.7,14.4-9.5,22H120L111.9,302.8z"/>
	<path fill="#824E63" d="M158.4,341.4h-3.8c-8.3,0-12.2-3.4-12.2-12.4v-29.2h-3.9c0-4.2,0-6.5,2.4-6.5h18.3c13,0,23.3,7.3,23.3,22.5
		C182.7,331.5,171.7,341.4,158.4,341.4z M149.2,299.9v28.4c0,4.3,1.7,6.7,6.2,6.7h2.8c9.2,0,17.3-6.6,17.3-19.1
		c0-11.6-7.8-16-17.3-16H149.2z"/>
	<path fill="#824E63" d="M193.3,341.4v-44.8c0-3.6,1.2-3.6,6.8-3.6v48.4L193.3,341.4L193.3,341.4z"/>
	<path fill="#824E63" d="M245.8,342.2l-26.4-37v36.3h-6.7v-46.4c2.1-1.3,4.1-2,6.5-2.2l26.4,36.6v-36.1h6.7V340
		C250.3,341.3,248.3,341.9,245.8,342.2z"/>
	<path fill="#824E63" d="M300.6,326.8v8.6c0,5.2-8.5,6.9-14.6,6.9c-14.1,0-23-9.7-23-26.2c0-13.6,9.5-23.3,23.4-23.3
		c9.8,0,16.4,4.5,16.4,11c0,3.4-2.1,5.7-4.4,5.7h-2.4v-1.6c0-5.4-3.8-8.7-9.9-8.7c-9.9,0-16,7.3-16,16.9c0,11.3,5.4,19.9,18,19.9
		c2,0,3.9-0.3,5.6-0.8v-10.9c0-3.6,1-3.6,6.8-3.6h7.1v6.2L300.6,326.8L300.6,326.8z"/>
	<path fill="#824E63" d="M345.3,325.3h-4.5v16.1H334V297c0-3.6,1.2-3.6,6.8-3.6h5.6c11.7,0,20,3.8,20,15.1
		C366.4,319.3,357.4,325.3,345.3,325.3z M346.3,299.6h-5.6v19.6h4.6c8.1,0,13.9-3.6,13.9-10.7C359.3,301.2,352.5,299.6,346.3,299.6z
		"/>
	<path fill="#824E63" d="M396.8,342.2c-13.2,0-22.6-11.4-22.6-26.2c0-14.7,9.1-23.3,22.6-23.3c13.6,0,22.8,8.7,22.8,23.3
		C419.5,330.8,410.1,342.2,396.8,342.2z M396.8,299c-9.3,0-15.3,6.4-15.3,17c0,11.5,6.3,19.7,15.3,19.7c9.2,0,15.6-7.8,15.6-19.7
		C412.4,305.1,406.3,299,396.8,299z"/>
	<path fill="#824E63" d="M441.7,342.2c-5.8,0-11.6-1.6-11.6-6.8v-2.7c3.2,1.6,7.2,2.8,11.3,2.8c4.9,0,9.3-1.9,9.3-6.4
		c0-9.4-22.6-5.1-22.6-21.3c0-9.5,7.1-15.2,16.8-15.2c8.2,0,14.5,4.5,14.5,10c0,3.9-2.2,5.3-4.4,5.3H453v-1.6c0-4-3.1-7.2-8.8-7.2
		c-5.5,0-9.1,3-9.1,7.4c0,11.6,22.7,6.7,22.7,21.6C457.8,337.5,450.3,342.2,441.7,342.2z"/>
	<path fill="#824E63" d="M481.5,341.4v-41.5H466v-6.6h35.1c2.5,0,2.5,2.3,2.5,6.6h-15.5v41.5H481.5z"/>
</g>
<g>
	<path fill="#824E63" d="M183.9,396.1v-23.9c-3,6.8-6.2,12.7-10.4,19.2c-0.8,0.4-1.8,0.6-2.6,0.6c-4.1-6.6-7.4-12.9-10.4-19.8v23.7
		h-2.4v-27.7c0.9-0.6,2.1-0.7,3.2-0.8c3,6.8,6.6,14.4,10.9,21.5c4.5-7.5,7.5-13.6,10.7-20.6c1-0.7,2.1-0.8,3.4-0.8v26.8
		C186.3,396,186.2,396.1,183.9,396.1z"/>
	<path fill="#824E63" d="M219.6,395.9l-2.7-7h-14.5c-0.8,2.3-1.5,4.6-2.3,7h-2.9c2.8-9,6.2-17.1,10.5-25.4c0.5-0.9,0.7-1.7,0.5-2.4
		c1-0.7,2.1-0.8,3.1-0.9l11.3,28.3v0.4H219.6z M210.1,371.2c-2.7,5.2-4.9,10.2-6.9,15.3h12.8L210.1,371.2z"/>
	<path fill="#824E63" d="M244.2,384.8l5.7,7c1.2,1.5,2.4,2.1,4,2.1h0.6v0.6c0,1.3-1.2,1.9-2.3,1.9c-1.7,0-2.8-0.5-4.5-2.7l-6.1-7.9
		h-5.9V396H233v-26.9c0-1.4,0.5-1.4,2.6-1.4h6c5.2,0,10,2.6,10,8.4C251.7,381,248.5,383.8,244.2,384.8z M241.3,370h-5.6v13.1h5.6
		c3.9,0,7.7-2.3,7.7-6.8C249,371.7,245.2,370,241.3,370z"/>
	<path fill="#824E63" d="M285.5,394.4c0,1.3-1.1,1.9-2.3,1.9c-1.9,0-3.1-0.6-4.8-3l-7.5-9.8h-4v12.4h-2.6v-27.1
		c0-1.4,0.5-1.4,2.6-1.4v13.6h3.7c4-3.6,8-9,10.8-13.5h2.9v0.4c-3,4.6-7,9.7-11.5,14l7.7,9.6c1.3,1.7,2.5,2.3,4.3,2.3h0.6V394.4z"/>
	<path fill="#824E63" d="M312.4,395.9h-10.8c-4.1,0-5.6-1.5-5.6-5.6V369c0-1.4,0.4-1.4,2.6-1.4h12.6c0.9,0,0.9,0.8,0.9,2.5h-13.6
		V381h11.1v2.4h-11.1v6.6c0,2.4,0.9,3.4,3.5,3.4h10.4V395.9z"/>
	<path fill="#824E63" d="M331.1,395.9v-25.8h-9.6v-2.5h20.8c1,0,1,0.8,1,2.5h-9.7v25.8H331.1z"/>
</g>
<g>
	<g>
		
			<path fill="none" stroke="#824E63" stroke-width="7.4429" stroke-linecap="round" stroke-linejoin="round" stroke-miterlimit="10" d="
			M208.2,155"/>
	</g>
	<g>
		<path fill="#824E63" d="M275.3,161.2c-1.9,0-3.4-1.5-3.5-3.4l-0.5-12l-40.7-25.6c-1.6-1-2.2-3.2-1.1-4.8c1-1.6,3.2-2.2,4.8-1.1
			l42.3,26.5c0.9,0.7,1.6,1.7,1.6,2.8l0.6,13.8C278.8,159.5,277.3,161.1,275.3,161.2C275.4,161.2,275.3,161.2,275.3,161.2z"/>
	</g>
	<g>
		<path fill="#824E63" d="M209.3,244.3c-0.5,0-0.8-0.1-1.3-0.3L99.9,199.7c-1.3-0.6-2.2-1.8-2.2-3.2l-0.2-50.1c0-2,1.6-3.5,3.5-3.5
			l0,0c1.9,0,3.5,1.6,3.5,3.5l0.2,47.7l106,43.4c1.8,0.8,2.6,2.8,1.9,4.6C212,243.6,210.7,244.3,209.3,244.3z M221.4,243.9
			c-1.7,0-3.1-1.2-3.5-2.8c-0.4-1.9,0.9-3.8,2.8-4l74.5-13.7v-34.9c0-2,1.6-3.5,3.5-3.5s3.5,1.6,3.5,3.5v37.8c0,1.7-1.2,3.1-2.8,3.5
			l-77.4,14.2C221.9,243.9,221.7,243.9,221.4,243.9z M329.3,223.9c-0.8,0-1.6-0.3-2.3-0.8c-0.8-0.7-1.3-1.7-1.3-2.7V175l-26.5,3.3
			c-1.9,0.3-3.7-1.1-4-3c-0.3-1.9,1.1-3.7,3-4l30.5-3.8c1-0.1,2,0.2,2.7,0.8s1.2,1.6,1.2,2.6v45l48.5-10V151c0-1.9,1.4-3.4,3.3-3.5
			l28.7-1.7v-8.3c0-2,1.6-3.5,3.5-3.5c1.9,0,3.5,1.6,3.5,3.5v11.6c0,1.9-1.4,3.4-3.3,3.5l-28.7,1.7v54.6c0,1.7-1.1,3.1-2.8,3.4
			l-55.5,11.4C329.8,223.8,329.6,223.9,329.3,223.9z M101.2,136.3c-1.6,0-3-1-3.4-2.6c-0.5-1.9,0.7-3.8,2.5-4.2l100.7-25v-51
			c0-2,1.6-3.5,3.5-3.5c1.9,0,3.5,1.6,3.5,3.5v53.8c0,1.6-1.1,3-2.6,3.4L102,136.2C101.7,136.3,101.5,136.3,101.2,136.3z
			 M413.2,131.4c-0.6,0-1.1-0.1-1.6-0.4l-28.4-15.1c-0.1,0-0.2-0.1-0.3-0.1c-0.4-0.3-0.8-0.6-1-0.9c-0.3-0.4-0.5-0.8-0.6-1.3
			c0-0.1,0-0.2,0-0.3L374.1,58L217.2,36.6l-12.3,4.7c-1.8,0.7-3.9-0.2-4.5-2c-0.7-1.8,0.2-3.9,2-4.5l13.2-5c0.6-0.2,1.1-0.3,1.7-0.2
			l160.4,21.9c0.3,0,0.6,0.1,0.8,0.2c0.5,0.2,0.9,0.5,1.2,0.8c0.4,0.4,0.7,0.8,0.8,1.3c0.1,0.3,0.2,0.6,0.2,0.8l7.3,56.2l26.8,14.2
			c1.7,0.9,2.4,3,1.4,4.7C415.8,130.7,414.6,131.4,413.2,131.4z M340.9,94.4c-0.1,0-0.2,0-0.3,0l-74.3-5.8c-1.8-0.1-3.2-1.6-3.2-3.4
			L262.5,72c-0.1-2,1.4-3.6,3.4-3.7c2-0.1,3.6,1.4,3.7,3.4l0.4,10.1l67.2,5.3L336,72.5l-69.8-8c-1.9-0.2-3.3-2-3.1-3.9
			c0.2-1.9,2-3.3,3.9-3.1l72.7,8.4c1.7,0.2,2.9,1.5,3.1,3.2l1.6,21.6c0.1,1-0.3,2-1,2.7C342.7,94,341.8,94.4,340.9,94.4z"/>
	</g>
	<g>
		<path fill="#824E63" d="M275.3,161.2c-1.9,0-3.4-1.4-3.5-3.3c-0.1-2,1.3-3.6,3.3-3.7l141.5-8.6c2-0.1,3.6,1.3,3.7,3.3
			c0.1,2-1.3,3.6-3.3,3.7l-141.5,8.6C275.4,161.2,275.3,161.2,275.3,161.2z"/>
	</g>
	<g>
		<path fill="#824E63" d="M289.7,146.7c-1.9,0-3.4-1.5-3.5-3.4c-0.1-2,1.4-3.6,3.4-3.7l127.1-5.6c1.9-0.1,3.6,1.4,3.7,3.4
			c0.1,2-1.4,3.6-3.4,3.7l-127.1,5.6C289.8,146.7,289.7,146.7,289.7,146.7z"/>
	</g>
	<g>
		<path fill="#824E63" d="M209.3,244.3c-1.9,0-3.5-1.5-3.5-3.5l-1.1-117c0-2,1.5-3.5,3.5-3.6l0,0c1.9,0,3.5,1.5,3.5,3.5l1.1,117
			C212.9,242.7,211.3,244.3,209.3,244.3L209.3,244.3z"/>
	</g>
	<g>
		<path fill="#824E63" d="M370.8,115.8L370.8,115.8L216.7,111c-1.9-0.1-3.4-1.6-3.4-3.5v-61c0-2,1.6-3.5,3.5-3.5
			c1.9,0,3.5,1.6,3.5,3.5v57.6l150.6,4.8c2,0.1,3.5,1.7,3.4,3.6C374.3,114.3,372.7,115.8,370.8,115.8z"/>
	</g>
	<g>
		
			<path fill="none" stroke="#824E63" stroke-width="7.4429" stroke-linecap="round" stroke-linejoin="round" stroke-miterlimit="10" d="
			M379.4,71"/>
	</g>
	<g>
		<path fill="#824E63" d="M403.5,114.6c-2,0-3.5-1.6-3.5-3.5v-5.8c0-2,1.6-3.5,3.5-3.5h22.7l-14.4-27.6c-0.6-1.1-0.6-2.4,0.1-3.5
			c0.7-1,1.8-1.7,3-1.7h8.5l-22.4-29.8c-0.8-1-0.9-2.4-0.4-3.7s1.8-2,3.1-2h8L390.3,8.8l-21.3,25h8c2,0,3.5,1.6,3.5,3.5
			c0,1.9-1.6,3.5-3.5,3.5h-15.6c-1.4,0-2.6-0.8-3.2-2.1c-0.6-1.2-0.4-2.7,0.6-3.8l29-33.7c0.7-0.8,1.6-1.2,2.6-1.2s2,0.5,2.6,1.2
			l29,33.7c0.8,1,1.1,2.5,0.6,3.8c-0.6,1.2-1.8,2.1-3.2,2.1h-8.7l22.4,29.8c0.8,1,0.9,2.4,0.4,3.7s-1.8,2-3.1,2h-9.7l14.5,27.5
			c0.6,1.1,0.6,2.4-0.1,3.5c-0.7,1-1.8,1.7-3,1.7h-25.1v2.4C406.9,113,405.3,114.6,403.5,114.6z"/>
	</g>
	<g>
		<path fill="#824E63" d="M90.4,155.1H72.6c-1.2,0-2.4-0.7-3-1.7c-0.7-1-0.7-2.4-0.1-3.5l14.5-27.5h-9.7c-1.3,0-2.5-0.8-3.1-2
			c-0.6-1.2-0.5-2.6,0.4-3.7L93.9,87h-8.7c-1.4,0-2.6-0.8-3.2-2.1c-0.6-1.2-0.4-2.7,0.6-3.8l29-33.7c0.7-0.8,1.6-1.2,2.6-1.2
			c1,0,2,0.5,2.6,1.2l29,33.7c0.8,1,1.1,2.5,0.6,3.8c-0.6,1.2-1.8,2.1-3.2,2.1h-8.7l15.4,20.6c1.1,1.5,0.8,3.8-0.7,4.9
			c-1.5,1.1-3.8,0.8-4.9-0.7l-19.7-26.2c-0.8-1-0.9-2.4-0.4-3.7c0.6-1.2,1.8-2,3.1-2h8l-21.4-24.8L92.8,80h8c1.3,0,2.5,0.8,3.1,2
			c0.6,1.2,0.5,2.6-0.4,3.7l-22.4,29.8h8.5c1.2,0,2.4,0.7,3,1.7c0.7,1,0.7,2.4,0.1,3.5l-14.5,27.5h12c2,0,3.5,1.6,3.5,3.5
			S92.3,155.1,90.4,155.1z"/>
	</g>
	<g>
		<path fill="#824E63" d="M162.4,108.8c-0.6,0-1.1-0.1-1.6-0.4c-1.7-0.9-2.4-3-1.5-4.7l14.5-27.5h-9.7c-1.3,0-2.5-0.8-3.1-2
			c-0.6-1.2-0.5-2.6,0.4-3.7l22.4-29.8h-8.7c-1.4,0-2.6-0.8-3.2-2.1c-0.6-1.2-0.4-2.7,0.6-3.8l29-33.7c0.7-0.8,1.6-1.2,2.6-1.2
			s2,0.5,2.6,1.2l17.4,20.2c1.2,1.5,1.1,3.7-0.4,4.9c-1.5,1.2-3.7,1.1-4.9-0.4L204.2,8.8l-21.5,24.9h8c1.3,0,2.5,0.8,3.1,2
			c0.6,1.2,0.5,2.6-0.4,3.7l-22.4,29.8h8.5c1.2,0,2.4,0.7,3,1.7c0.7,1,0.7,2.4,0.1,3.5L165.5,107C165,108,163.8,108.8,162.4,108.8z"
			/>
	</g>
</g>
<g>
	
		<path fill="none" stroke="#5F755C" stroke-width="7.9115" stroke-linecap="round" stroke-linejoin="round" stroke-miterlimit="10" d="
		M215.3,183.8"/>
</g>
<g>
	
		<path fill="none" stroke="#5F755C" stroke-width="7.9115" stroke-linecap="round" stroke-linejoin="round" stroke-miterlimit="10" d="
		M360.1,112.7"/>
</g>
</svg>
