<?xml version="1.0" encoding="utf-8"?>
<!-- Generator: Adobe Illustrator 18.0.0, SVG Export Plug-In . SVG Version: 6.00 Build 0)  -->
<!DOCTYPE svg PUBLIC "-//W3C//DTD SVG 1.1//EN" "http://www.w3.org/Graphics/SVG/1.1/DTD/svg11.dtd">
<svg version="1.1" id="Layer_1" xmlns="http://www.w3.org/2000/svg" xmlns:xlink="http://www.w3.org/1999/xlink" x="0px" y="0px"
	 viewBox="0 0 825.3 782.4" enable-background="new 0 0 825.3 782.4" xml:space="preserve">
<path fill="#CAC2B9" d="M0-3.2v768.5c0,11,10.3,19.1,20.9,16.5l372.9-89.3c2.6-0.6,5.3-0.6,7.9,0l372.9,89.3
	c10.7,2.6,20.9-5.5,20.9-16.5V-3.2H0z"/>
<path fill="#FFFFFF" d="M29.7-3.2v730c0,14.7,13.7,25.5,28,22.1l364.5-87.3c3.5-0.8,7.1-0.8,10.6,0l364.5,87.3
	c14.3,3.4,28-7.4,28-22.1v-730H29.7z"/>
<g>
	<path fill="#967F66" d="M139.8,487.3v-50.5H121v-8h42.8c3.1,0,3.1,2.7,3.1,8H148v50.5H139.8z"/>
	<path fill="#967F66" d="M204.3,464.5l9.2,11.8c2.8,3.7,5.5,4.6,9.3,4.6h1.5v1.6c0,4-3.8,5.6-7.2,5.6c-3.7,0-6.5-0.8-10.7-6.9
		l-10-14.1h-10.3v20.1h-8.3v-54.1c0-4.4,1.5-4.4,8.3-4.4h11.2c11.6,0,21.2,6.2,21.2,17.4C218.3,455.7,213.2,461.7,204.3,464.5z
		 M195.5,436.3h-9.5v23.2h10.4c7,0,13.3-4.4,13.3-12.1C209.6,439.5,203,436.3,195.5,436.3z"/>
	<path fill="#967F66" d="M274.4,487.3l-4.6-12.7h-26.9c-1.5,4.3-2.7,8.5-4,12.7h-9.5c5.7-17.3,13.1-35.2,20.7-49.8
		c1.4-2.7,1.7-4.8,1.1-6.5c3.2-1.8,6.4-2.6,9.7-2.8l23.1,58.1v1.1H274.4z M257.2,440.1c-4.2,8.4-8.1,17.5-11.5,26.8h21.4
		L257.2,440.1z"/>
	<path fill="#967F66" d="M313.8,487.3h-4.5c-10.1,0-14.9-4.1-14.9-15.1v-35.5h-4.7c0-5.2,0-7.9,3-7.9h22.2
		c15.8,0,28.4,8.9,28.4,27.3C343.3,475.1,329.9,487.3,313.8,487.3z M302.6,436.7v34.6c0,5.3,2.1,8.1,7.5,8.1h3.4
		c11.3,0,21.1-8,21.1-23.2c0-14.1-9.5-19.4-21.1-19.4H302.6z"/>
	<path fill="#967F66" d="M356.3,487.3v-54.5c0-4.4,1.5-4.4,8.3-4.4v58.8H356.3z"/>
	<path fill="#967F66" d="M420.2,488.1L388,443v44.2h-8.2v-56.5c2.5-1.6,5.1-2.4,7.9-2.6l32.2,44.6v-43.9h8.2v56.6
		C425.7,487.1,423.1,487.8,420.2,488.1z"/>
	<path fill="#967F66" d="M486.9,469.4v10.4c0,6.3-10.3,8.4-17.8,8.4c-17.2,0-28-11.8-28-31.9c0-16.6,11.5-28.4,28.5-28.4
		c11.9,0,20,5.4,20,13.3c0,4.1-2.5,7-5.4,7h-2.8v-2c0-6.5-4.5-10.5-12.1-10.5c-12.1,0-19.4,9-19.4,20.6c0,13.8,6.5,24.1,21.9,24.1
		c2.5,0,4.7-0.4,6.9-1v-13.3c0-4.4,1.3-4.4,8.3-4.4h8.6v7.5H486.9z"/>
	<path fill="#967F66" d="M541.2,467.6h-5.5v19.6h-8.3v-54.1c0-4.4,1.5-4.4,8.3-4.4h6.9c14.3,0,24.3,4.6,24.3,18.3
		C566.9,460.3,556,467.6,541.2,467.6z M542.5,436.3h-6.8v23.9h5.6c9.8,0,17-4.4,17-13.1C558.3,438.3,550.1,436.3,542.5,436.3z"/>
	<path fill="#967F66" d="M604,488.2c-16.1,0-27.5-13.9-27.5-31.9c0-17.9,11.2-28.4,27.5-28.4c16.5,0,27.7,10.5,27.7,28.4
		C631.7,474.3,620.2,488.2,604,488.2z M604,435.5c-11.3,0-18.7,7.8-18.7,20.8c0,14,7.6,24,18.7,24c11.3,0,19-9.5,19-24
		C623,443,615.5,435.5,604,435.5z"/>
	<path fill="#967F66" d="M658.5,488.2c-7.1,0-14.1-2-14.1-8.3v-3.4c3.9,2,8.7,3.4,13.8,3.4c5.9,0,11.3-2.3,11.3-7.8
		c0-11.4-27.5-6.2-27.5-25.9c0-11.6,8.6-18.4,20.4-18.4c10,0,17.6,5.4,17.6,12.2c0,4.7-2.6,6.4-5.4,6.4h-2.3v-2
		c0-4.8-3.8-8.8-10.6-8.8c-6.6,0-11.2,3.7-11.2,9.1c0,14.1,27.6,8.1,27.6,26.3C678.3,482.4,669.1,488.2,658.5,488.2z"/>
	<path fill="#967F66" d="M707,487.3v-50.5h-18.8v-8H731c3.1,0,3.1,2.7,3.1,8h-18.9v50.5H707z"/>
</g>
<g>
	<path fill="#CAC2B9" d="M344.8,553.7v-29c-3.7,8.3-7.6,15.5-12.6,23.4c-1,0.4-2.2,0.6-3.2,0.6c-5-8-9-15.7-12.6-24v28.8h-3v-33.7
		c1.1-0.6,2.5-0.9,3.9-1c3.6,8.3,8,17.5,13.3,26.2c5.5-9.2,9.2-16.6,13.1-25.1c1.3-0.8,2.6-1,4.1-1v32.6
		C347.8,553.7,347.7,553.7,344.8,553.7z"/>
	<path fill="#CAC2B9" d="M388.3,553.6l-3.3-8.5h-17.6c-1,2.8-1.9,5.6-2.7,8.5H361c3.4-11,7.5-20.8,12.8-31c0.5-1.1,0.8-2.1,0.5-2.8
		c1.2-0.8,2.5-1.1,3.8-1.1l13.7,34.5v0.5H388.3z M376.7,523.4c-3.3,6.3-6,12.3-8.4,18.6H384L376.7,523.4z"/>
	<path fill="#CAC2B9" d="M418.3,540l7,8.5c1.4,1.9,2.8,2.5,4.8,2.5h0.7v0.7c0,1.6-1.4,2.3-2.7,2.3c-2.1,0-3.4-0.5-5.5-3.4l-7.4-9.6
		H408v12.6h-3.2v-32.8c0-1.7,0.5-1.7,3.2-1.7h7.3c6.3,0,12.1,3.2,12.1,10.2C427.4,535.3,423.5,538.8,418.3,540z M414.7,522H408v16
		h6.8c4.7,0,9.4-2.7,9.4-8.3C424.1,524.1,419.5,522,414.7,522z"/>
	<path fill="#CAC2B9" d="M468.6,551.7c0,1.6-1.4,2.3-2.7,2.3c-2.3,0-3.8-0.7-5.9-3.6l-9.2-11.9h-4.8v15.2h-3.2v-33
		c0-1.7,0.5-1.7,3.2-1.7v16.5h4.5c4.8-4.4,9.8-11,13.1-16.3h3.6v0.5c-3.6,5.6-8.5,11.8-13.9,17l9.4,11.7c1.6,2.1,3.1,2.7,5.3,2.7
		h0.6V551.7z"/>
	<path fill="#CAC2B9" d="M501.3,553.6h-13.1c-5.1,0-6.9-1.8-6.9-6.9v-25.9c0-1.7,0.5-1.7,3.2-1.7h15.3c1.2,0,1.2,1,1.2,3.1h-16.5
		v13.2h13.6v3h-13.6v8c0,2.9,1.2,4.1,4.2,4.1h12.6V553.6z"/>
	<path fill="#CAC2B9" d="M523.9,553.6v-31.4h-11.6v-3.1h25.3c1.2,0,1.2,1,1.2,3.1H527v31.4H523.9z"/>
</g>
<g>

		<path fill="none" stroke="#5F755C" stroke-width="7.9115" stroke-linecap="round" stroke-linejoin="round" stroke-miterlimit="10" d="
		M378.3,276.9"/>
</g>
<g>

		<path fill="none" stroke="#5F755C" stroke-width="7.9115" stroke-linecap="round" stroke-linejoin="round" stroke-miterlimit="10" d="
		M571.5,182"/>
</g>
<g>
	<g>
		<path fill="#967F66" d="M379.5,377.8c-2.2,0-3.9-1.7-4-3.9l-1.3-132.1c0-2.2,1.7-4,3.9-4c0,0,0,0,0,0c2.2,0,3.9,1.7,4,3.9
			l1.3,132.1C383.5,376,381.7,377.8,379.5,377.8C379.6,377.8,379.5,377.8,379.5,377.8z"/>
	</g>
	<g>
		<path fill="#967F66" d="M454,283.9c-2.1,0-3.9-1.7-4-3.8l-0.5-13.5l-45.9-28.9c-1.8-1.2-2.4-3.6-1.2-5.5c1.2-1.8,3.6-2.4,5.5-1.2
			l47.7,30c1.1,0.7,1.8,1.9,1.8,3.2l0.6,15.6c0.1,2.2-1.6,4-3.8,4.1C454.1,283.9,454,283.9,454,283.9z"/>
	</g>
	<g>
		<path fill="#967F66" d="M379.5,377.8c-0.5,0-1-0.1-1.5-0.3l-122.1-50c-1.5-0.6-2.5-2-2.5-3.6l-0.2-56.5c0-2.2,1.8-4,3.9-4
			c0,0,0,0,0,0c2.2,0,3.9,1.8,4,3.9l0.2,53.9l119.7,49c2,0.8,3,3.1,2.2,5.2C382.6,376.9,381.1,377.8,379.5,377.8z M393.3,377.4
			c-1.9,0-3.5-1.3-3.9-3.2c-0.4-2.1,1-4.2,3.2-4.6l84.2-15.5v-39.5c0-2.2,1.8-4,4-4c2.2,0,4,1.8,4,4v42.7c0,1.9-1.4,3.5-3.2,3.9
			L394,377.3C393.7,377.3,393.5,377.4,393.3,377.4z M515.1,354.7c-0.9,0-1.8-0.3-2.5-0.9c-0.9-0.8-1.5-1.9-1.5-3.1v-51.2l-30,3.7
			c-2.2,0.3-4.1-1.3-4.4-3.4c-0.3-2.2,1.3-4.1,3.4-4.4l34.4-4.3c1.1-0.1,2.3,0.2,3.1,1c0.8,0.8,1.3,1.8,1.3,3v50.8l54.8-11.3v-62.2
			c0-2.1,1.6-3.8,3.7-3.9l32.4-2v-9.3c0-2.2,1.8-4,4-4s4,1.8,4,4v13c0,2.1-1.6,3.8-3.7,3.9l-32.4,2v61.7c0,1.9-1.3,3.5-3.2,3.9
			l-62.7,12.9C515.6,354.6,515.3,354.7,515.1,354.7z M257.4,255.8c-1.8,0-3.4-1.2-3.8-3c-0.5-2.1,0.8-4.3,2.9-4.8l113.7-28.3v-57.7
			c0-2.2,1.8-4,4-4s4,1.8,4,4v60.8c0,1.8-1.2,3.4-3,3.8l-116.7,29C258,255.8,257.7,255.8,257.4,255.8z M609.9,250.3
			c-0.6,0-1.3-0.1-1.8-0.5l-32.1-17c-0.1,0-0.2-0.1-0.3-0.2c-0.5-0.3-0.9-0.7-1.2-1.1c-0.3-0.4-0.5-0.9-0.6-1.5c0-0.1,0-0.2,0-0.3
			l-8.2-62.5L388.4,143l-13.9,5.3c-2,0.8-4.3-0.2-5.1-2.3c-0.8-2,0.2-4.3,2.3-5.1l14.8-5.7c0.6-0.2,1.3-0.3,1.9-0.2l181.1,24.7
			c0.3,0,0.6,0.1,0.9,0.2c0.5,0.2,1,0.5,1.4,0.9c0.4,0.4,0.7,0.9,0.9,1.5c0.1,0.3,0.2,0.6,0.2,0.9l8.3,63.5l30.3,16.1
			c1.9,1,2.7,3.4,1.6,5.3C612.7,249.5,611.3,250.3,609.9,250.3z M528.1,208.5c-0.1,0-0.2,0-0.3,0l-84-6.6c-2-0.2-3.6-1.8-3.6-3.8
			l-0.6-14.9c-0.1-2.2,1.6-4,3.8-4.1c2.2-0.1,4,1.6,4.1,3.8l0.4,11.4l75.9,5.9l-1.3-16.5l-78.9-9.1c-2.2-0.2-3.7-2.2-3.5-4.4
			c0.2-2.2,2.2-3.7,4.4-3.5l82.2,9.5c1.9,0.2,3.3,1.7,3.5,3.6l1.9,24.3c0.1,1.2-0.3,2.3-1.2,3.1C530.1,208,529.1,208.5,528.1,208.5z
			"/>
	</g>
	<g>
		<path fill="#967F66" d="M454,283.9c-2.1,0-3.8-1.6-3.9-3.7c-0.1-2.2,1.5-4.1,3.7-4.2l159.9-9.7c2.2-0.1,4.1,1.5,4.2,3.7
			c0.1,2.2-1.5,4.1-3.7,4.2l-159.9,9.7C454.1,283.9,454.1,283.9,454,283.9z"/>
	</g>
	<g>
		<path fill="#967F66" d="M470.3,267.5c-2.1,0-3.9-1.7-3.9-3.8c-0.1-2.2,1.6-4,3.8-4.1l143.6-6.4c2.2-0.1,4,1.6,4.1,3.8
			c0.1,2.2-1.6,4-3.8,4.1l-143.6,6.4C470.4,267.5,470.3,267.5,470.3,267.5z"/>
	</g>
	<g>
		<path fill="#967F66" d="M561.9,232.7c0,0-0.1,0-0.1,0l-173.9-5.6c-2.1-0.1-3.8-1.8-3.8-4v-68.9c0-2.2,1.8-4,4-4s4,1.8,4,4v65
			l170.1,5.5c2.2,0.1,3.9,1.9,3.8,4.1C565.8,231,564,232.7,561.9,232.7z"/>
	</g>
	<g>
		<path fill="#967F66" d="M598.8,231.3c-2.2,0-4-1.8-4-4v-6.6c0-2.2,1.8-4,4-4h25.7l-16.3-31c-0.6-1.2-0.6-2.7,0.1-3.9
			c0.7-1.2,2-1.9,3.4-1.9h9.5l-25.3-33.7c-0.9-1.2-1-2.8-0.4-4.1c0.7-1.3,2-2.2,3.5-2.2h9l-24.1-28l-24.1,28h9c2.2,0,4,1.8,4,4
			c0,2.2-1.8,4-4,4h-17.6c-1.5,0-2.9-0.9-3.6-2.3c-0.6-1.4-0.4-3.1,0.6-4.2l32.7-38.1c0.8-0.9,1.8-1.4,3-1.4c1.2,0,2.2,0.5,3,1.4
			l32.7,38.1c1,1.2,1.2,2.8,0.6,4.2c-0.6,1.4-2,2.3-3.6,2.3H607l25.3,33.7c0.9,1.2,1,2.8,0.4,4.1c-0.7,1.3-2,2.2-3.5,2.2h-10.9
			l16.3,31c0.6,1.2,0.6,2.7-0.1,3.9c-0.7,1.2-2,1.9-3.4,1.9h-28.2v2.6C602.7,229.5,601,231.3,598.8,231.3z"/>
	</g>
	<g>
		<path fill="#967F66" d="M245.2,277H225c-1.4,0-2.7-0.7-3.4-1.9c-0.7-1.2-0.8-2.7-0.1-3.9l16.3-31h-10.9c-1.5,0-2.9-0.8-3.5-2.2
			c-0.7-1.3-0.5-2.9,0.4-4.1l25.3-33.7h-9.7c-1.5,0-3-0.9-3.6-2.3c-0.6-1.4-0.4-3.1,0.6-4.2l32.7-38.1c0.8-0.9,1.8-1.4,3-1.4
			c1.2,0,2.2,0.5,3,1.4l32.7,38.1c1,1.2,1.2,2.8,0.6,4.2c-0.6,1.4-2,2.3-3.6,2.3H295l17.5,23.3c1.3,1.7,1,4.2-0.8,5.5
			c-1.7,1.3-4.2,1-5.5-0.8l-22.2-29.6c-0.9-1.2-1-2.8-0.4-4.1c0.7-1.3,2-2.2,3.5-2.2h9l-24.1-28l-24.1,28h9c1.5,0,2.9,0.8,3.5,2.2
			c0.7,1.3,0.5,2.9-0.4,4.1l-25.3,33.7h9.5c1.4,0,2.7,0.7,3.4,1.9s0.8,2.7,0.1,3.9l-16.3,31h13.7c2.2,0,4,1.8,4,4
			S247.4,277,245.2,277z"/>
	</g>
	<g>
		<path fill="#967F66" d="M326.6,224.7c-0.6,0-1.3-0.1-1.8-0.5c-1.9-1-2.7-3.4-1.7-5.3l16.3-31h-10.9c-1.5,0-2.9-0.8-3.5-2.2
			c-0.7-1.3-0.5-2.9,0.4-4.1l25.3-33.7h-9.7c-1.5,0-3-0.9-3.6-2.3c-0.6-1.4-0.4-3.1,0.6-4.2l32.7-38.1c0.8-0.9,1.8-1.4,3-1.4
			c1.2,0,2.2,0.5,3,1.4l19.6,22.8c1.4,1.7,1.2,4.2-0.4,5.6c-1.7,1.4-4.2,1.2-5.6-0.4l-16.6-19.3l-24.1,28h9c1.5,0,2.9,0.8,3.5,2.2
			c0.7,1.3,0.5,2.9-0.4,4.1l-25.3,33.7h9.5c1.4,0,2.7,0.7,3.4,1.9c0.7,1.2,0.8,2.7,0.1,3.9l-19.4,36.8
			C329.4,223.9,328,224.7,326.6,224.7z"/>
	</g>
</g>
</svg>
