<?xml version="1.0" encoding="utf-8"?>
<!-- Generator: Adobe Illustrator 21.1.0, SVG Export Plug-In . SVG Version: 6.00 Build 0)  -->
<svg version="1.1" id="Layer_1" xmlns="http://www.w3.org/2000/svg" xmlns:xlink="http://www.w3.org/1999/xlink" x="0px" y="0px"
	 viewBox="0 0 825.3 1356.7" style="enable-background:new 0 0 825.3 1356.7;" xml:space="preserve">
<style type="text/css">
	.st0{fill:#CAC2B9;}
	.st1{fill:#FFFFFF;}
	.st2{fill:#967F66;}
	.st3{fill:none;stroke:#5F755C;stroke-width:7.9115;stroke-linecap:round;stroke-linejoin:round;stroke-miterlimit:10;}
</style>
<path class="st0" d="M10,175.1l4,1154.5c0,11,10.3,19.1,20.9,16.5l381.9-91.3c2.6-0.6,5.3-0.6,7.9,0l362.9,89.3
	c10.7,2.6,20.9-5.5,20.9-16.5V175.1H10z"/>
<path class="st1" d="M29.7,571.1v730c0,14.7,13.7,25.5,28,22.1l364.5-87.3c3.5-0.8,7.1-0.8,10.6,0l364.5,87.3
	c14.3,3.4,28-7.4,28-22.1v-1130H29.7V571.1z"/>
<g>
	<path class="st2" d="M139.8,1061.6v-50.5H121v-8h42.8c3.1,0,3.1,2.7,3.1,8H148v50.5H139.8z"/>
	<path class="st2" d="M204.3,1038.8l9.2,11.8c2.8,3.7,5.5,4.6,9.3,4.6h1.5v1.6c0,4-3.8,5.6-7.2,5.6c-3.7,0-6.5-0.8-10.7-6.9
		l-10-14.1h-10.3v20.1h-8.3v-54.1c0-4.4,1.5-4.4,8.3-4.4h11.2c11.6,0,21.2,6.2,21.2,17.4C218.3,1030,213.2,1036,204.3,1038.8z
		 M195.5,1010.6H186v23.2h10.4c7,0,13.3-4.4,13.3-12.1C209.6,1013.8,203,1010.6,195.5,1010.6z"/>
	<path class="st2" d="M274.4,1061.6l-4.6-12.7h-26.9c-1.5,4.3-2.7,8.5-4,12.7h-9.5c5.7-17.3,13.1-35.2,20.7-49.8
		c1.4-2.7,1.7-4.8,1.1-6.5c3.2-1.8,6.4-2.6,9.7-2.8l23.1,58.1v1.1h-9.6V1061.6z M257.2,1014.4c-4.2,8.4-8.1,17.5-11.5,26.8h21.4
		L257.2,1014.4z"/>
	<path class="st2" d="M313.8,1061.6h-4.5c-10.1,0-14.9-4.1-14.9-15.1V1011h-4.7c0-5.2,0-7.9,3-7.9h22.2c15.8,0,28.4,8.9,28.4,27.3
		C343.3,1049.4,329.9,1061.6,313.8,1061.6z M302.6,1011v34.6c0,5.3,2.1,8.1,7.5,8.1h3.4c11.3,0,21.1-8,21.1-23.2
		c0-14.1-9.5-19.4-21.1-19.4L302.6,1011L302.6,1011z"/>
	<path class="st2" d="M356.3,1061.6v-54.5c0-4.4,1.5-4.4,8.3-4.4v58.8L356.3,1061.6L356.3,1061.6z"/>
	<path class="st2" d="M420.2,1062.4l-32.2-45.1v44.2h-8.2V1005c2.5-1.6,5.1-2.4,7.9-2.6l32.2,44.6v-43.9h8.2v56.6
		C425.7,1061.4,423.1,1062.1,420.2,1062.4z"/>
	<path class="st2" d="M486.9,1043.7v10.4c0,6.3-10.3,8.4-17.8,8.4c-17.2,0-28-11.8-28-31.9c0-16.6,11.5-28.4,28.5-28.4
		c11.9,0,20,5.4,20,13.3c0,4.1-2.5,7-5.4,7h-2.8v-2c0-6.5-4.5-10.5-12.1-10.5c-12.1,0-19.4,9-19.4,20.6c0,13.8,6.5,24.1,21.9,24.1
		c2.5,0,4.7-0.4,6.9-1v-13.3c0-4.4,1.3-4.4,8.3-4.4h8.6v7.5h-8.7V1043.7z"/>
	<path class="st2" d="M541.2,1041.9h-5.5v19.6h-8.3v-54.1c0-4.4,1.5-4.4,8.3-4.4h6.9c14.3,0,24.3,4.6,24.3,18.3
		C566.9,1034.6,556,1041.9,541.2,1041.9z M542.5,1010.6h-6.8v23.9h5.6c9.8,0,17-4.4,17-13.1C558.3,1012.6,550.1,1010.6,542.5,1010.6
		z"/>
	<path class="st2" d="M604,1062.5c-16.1,0-27.5-13.9-27.5-31.9c0-17.9,11.2-28.4,27.5-28.4c16.5,0,27.7,10.5,27.7,28.4
		C631.7,1048.6,620.2,1062.5,604,1062.5z M604,1009.8c-11.3,0-18.7,7.8-18.7,20.8c0,14,7.6,24,18.7,24c11.3,0,19-9.5,19-24
		C623,1017.3,615.5,1009.8,604,1009.8z"/>
	<path class="st2" d="M658.5,1062.5c-7.1,0-14.1-2-14.1-8.3v-3.4c3.9,2,8.7,3.4,13.8,3.4c5.9,0,11.3-2.3,11.3-7.8
		c0-11.4-27.5-6.2-27.5-25.9c0-11.6,8.6-18.4,20.4-18.4c10,0,17.6,5.4,17.6,12.2c0,4.7-2.6,6.4-5.4,6.4h-2.3v-2
		c0-4.8-3.8-8.8-10.6-8.8c-6.6,0-11.2,3.7-11.2,9.1c0,14.1,27.6,8.1,27.6,26.3C678.3,1056.7,669.1,1062.5,658.5,1062.5z"/>
	<path class="st2" d="M707,1061.6v-50.5h-18.8v-8H731c3.1,0,3.1,2.7,3.1,8h-18.9v50.5H707z"/>
</g>
<g>
	<path class="st0" d="M344.8,1128v-29c-3.7,8.3-7.6,15.5-12.6,23.4c-1,0.4-2.2,0.6-3.2,0.6c-5-8-9-15.7-12.6-24v28.8h-3v-33.7
		c1.1-0.6,2.5-0.9,3.9-1c3.6,8.3,8,17.5,13.3,26.2c5.5-9.2,9.2-16.6,13.1-25.1c1.3-0.8,2.6-1,4.1-1v32.6
		C347.8,1128,347.7,1128,344.8,1128z"/>
	<path class="st0" d="M388.3,1127.9l-3.3-8.5h-17.6c-1,2.8-1.9,5.6-2.7,8.5H361c3.4-11,7.5-20.8,12.8-31c0.5-1.1,0.8-2.1,0.5-2.8
		c1.2-0.8,2.5-1.1,3.8-1.1l13.7,34.5v0.5L388.3,1127.9L388.3,1127.9z M376.7,1097.7c-3.3,6.3-6,12.3-8.4,18.6H384L376.7,1097.7z"/>
	<path class="st0" d="M418.3,1114.3l7,8.5c1.4,1.9,2.8,2.5,4.8,2.5h0.7v0.7c0,1.6-1.4,2.3-2.7,2.3c-2.1,0-3.4-0.5-5.5-3.4l-7.4-9.6
		H408v12.6h-3.2v-32.8c0-1.7,0.5-1.7,3.2-1.7h7.3c6.3,0,12.1,3.2,12.1,10.2C427.4,1109.6,423.5,1113.1,418.3,1114.3z M414.7,1096.3
		H408v16h6.8c4.7,0,9.4-2.7,9.4-8.3C424.1,1098.4,419.5,1096.3,414.7,1096.3z"/>
	<path class="st0" d="M468.6,1126c0,1.6-1.4,2.3-2.7,2.3c-2.3,0-3.8-0.7-5.9-3.6l-9.2-11.9H446v15.2h-3.2v-33c0-1.7,0.5-1.7,3.2-1.7
		v16.5h4.5c4.8-4.4,9.8-11,13.1-16.3h3.6v0.5c-3.6,5.6-8.5,11.8-13.9,17l9.4,11.7c1.6,2.1,3.1,2.7,5.3,2.7h0.6V1126z"/>
	<path class="st0" d="M501.3,1127.9h-13.1c-5.1,0-6.9-1.8-6.9-6.9v-25.9c0-1.7,0.5-1.7,3.2-1.7h15.3c1.2,0,1.2,1,1.2,3.1h-16.5v13.2
		h13.6v3h-13.6v8c0,2.9,1.2,4.1,4.2,4.1h12.6L501.3,1127.9L501.3,1127.9z"/>
	<path class="st0" d="M523.9,1127.9v-31.4h-11.6v-3.1h25.3c1.2,0,1.2,1,1.2,3.1H527v31.4H523.9z"/>
</g>
<g>
	<path class="st3" d="M378.3,851.2"/>
</g>
<g>
	<path class="st3" d="M571.5,756.3"/>
</g>
<g>
	<g>
		<path class="st2" d="M379.5,952.1c-2.2,0-3.9-1.7-4-3.9l-1.3-132.1c0-2.2,1.7-4,3.9-4l0,0c2.2,0,3.9,1.7,4,3.9l1.3,132.1
			C383.5,950.3,381.7,952.1,379.5,952.1C379.6,952.1,379.5,952.1,379.5,952.1z"/>
	</g>
	<g>
		<path class="st2" d="M454,858.2c-2.1,0-3.9-1.7-4-3.8l-0.5-13.5L403.6,812c-1.8-1.2-2.4-3.6-1.2-5.5c1.2-1.8,3.6-2.4,5.5-1.2
			l47.7,30c1.1,0.7,1.8,1.9,1.8,3.2l0.6,15.6c0.1,2.2-1.6,4-3.8,4.1C454.1,858.2,454,858.2,454,858.2z"/>
	</g>
	<g>
		<path class="st2" d="M379.5,952.1c-0.5,0-1-0.1-1.5-0.3l-122.1-50c-1.5-0.6-2.5-2-2.5-3.6l-0.2-56.5c0-2.2,1.8-4,3.9-4l0,0
			c2.2,0,3.9,1.8,4,3.9l0.2,53.9l119.7,49c2,0.8,3,3.1,2.2,5.2C382.6,951.2,381.1,952.1,379.5,952.1z M393.3,951.7
			c-1.9,0-3.5-1.3-3.9-3.2c-0.4-2.1,1-4.2,3.2-4.6l84.2-15.5v-39.5c0-2.2,1.8-4,4-4s4,1.8,4,4v42.7c0,1.9-1.4,3.5-3.2,3.9L394,951.6
			C393.7,951.6,393.5,951.7,393.3,951.7z M515.1,929c-0.9,0-1.8-0.3-2.5-0.9c-0.9-0.8-1.5-1.9-1.5-3.1v-51.2l-30,3.7
			c-2.2,0.3-4.1-1.3-4.4-3.4c-0.3-2.2,1.3-4.1,3.4-4.4l34.4-4.3c1.1-0.1,2.3,0.2,3.1,1s1.3,1.8,1.3,3v50.8l54.8-11.3v-62.2
			c0-2.1,1.6-3.8,3.7-3.9l32.4-2v-9.3c0-2.2,1.8-4,4-4s4,1.8,4,4v13c0,2.1-1.6,3.8-3.7,3.9l-32.4,2v61.7c0,1.9-1.3,3.5-3.2,3.9
			l-62.7,12.9C515.6,928.9,515.3,929,515.1,929z M257.4,830.1c-1.8,0-3.4-1.2-3.8-3c-0.5-2.1,0.8-4.3,2.9-4.8L370.2,794v-57.7
			c0-2.2,1.8-4,4-4s4,1.8,4,4v60.8c0,1.8-1.2,3.4-3,3.8l-116.7,29C258,830.1,257.7,830.1,257.4,830.1z M609.9,824.6
			c-0.6,0-1.3-0.1-1.8-0.5l-32.1-17c-0.1,0-0.2-0.1-0.3-0.2c-0.5-0.3-0.9-0.7-1.2-1.1c-0.3-0.4-0.5-0.9-0.6-1.5c0-0.1,0-0.2,0-0.3
			l-8.2-62.5l-177.3-24.2l-13.9,5.3c-2,0.8-4.3-0.2-5.1-2.3c-0.8-2,0.2-4.3,2.3-5.1l14.8-5.7c0.6-0.2,1.3-0.3,1.9-0.2L569.5,734
			c0.3,0,0.6,0.1,0.9,0.2c0.5,0.2,1,0.5,1.4,0.9c0.4,0.4,0.7,0.9,0.9,1.5c0.1,0.3,0.2,0.6,0.2,0.9l8.3,63.5l30.3,16.1
			c1.9,1,2.7,3.4,1.6,5.3C612.7,823.8,611.3,824.6,609.9,824.6z M528.1,782.8c-0.1,0-0.2,0-0.3,0l-84-6.6c-2-0.2-3.6-1.8-3.6-3.8
			l-0.6-14.9c-0.1-2.2,1.6-4,3.8-4.1c2.2-0.1,4,1.6,4.1,3.8l0.4,11.4l75.9,5.9l-1.3-16.5l-78.9-9.1c-2.2-0.2-3.7-2.2-3.5-4.4
			s2.2-3.7,4.4-3.5l82.2,9.5c1.9,0.2,3.3,1.7,3.5,3.6l1.9,24.3c0.1,1.2-0.3,2.3-1.2,3.1C530.1,782.3,529.1,782.8,528.1,782.8z"/>
	</g>
	<g>
		<path class="st2" d="M454,858.2c-2.1,0-3.8-1.6-3.9-3.7c-0.1-2.2,1.5-4.1,3.7-4.2l159.9-9.7c2.2-0.1,4.1,1.5,4.2,3.7
			c0.1,2.2-1.5,4.1-3.7,4.2l-159.9,9.7C454.1,858.2,454.1,858.2,454,858.2z"/>
	</g>
	<g>
		<path class="st2" d="M470.3,841.8c-2.1,0-3.9-1.7-3.9-3.8c-0.1-2.2,1.6-4,3.8-4.1l143.6-6.4c2.2-0.1,4,1.6,4.1,3.8s-1.6,4-3.8,4.1
			l-143.6,6.4C470.4,841.8,470.3,841.8,470.3,841.8z"/>
	</g>
	<g>
		<path class="st2" d="M561.9,807L561.9,807l-174-5.6c-2.1-0.1-3.8-1.8-3.8-4v-68.9c0-2.2,1.8-4,4-4s4,1.8,4,4v65l170.1,5.5
			c2.2,0.1,3.9,1.9,3.8,4.1C565.8,805.3,564,807,561.9,807z"/>
	</g>
	<g>
		<path class="st2" d="M598.8,805.6c-2.2,0-4-1.8-4-4V795c0-2.2,1.8-4,4-4h25.7l-16.3-31c-0.6-1.2-0.6-2.7,0.1-3.9
			c0.7-1.2,2-1.9,3.4-1.9h9.5l-25.3-33.7c-0.9-1.2-1-2.8-0.4-4.1c0.7-1.3,2-2.2,3.5-2.2h9l-24.1-28l-24.1,28h9c2.2,0,4,1.8,4,4
			c0,2.2-1.8,4-4,4h-17.6c-1.5,0-2.9-0.9-3.6-2.3c-0.6-1.4-0.4-3.1,0.6-4.2l32.7-38.1c0.8-0.9,1.8-1.4,3-1.4s2.2,0.5,3,1.4
			l32.7,38.1c1,1.2,1.2,2.8,0.6,4.2c-0.6,1.4-2,2.3-3.6,2.3H607l25.3,33.7c0.9,1.2,1,2.8,0.4,4.1c-0.7,1.3-2,2.2-3.5,2.2h-10.9
			l16.3,31c0.6,1.2,0.6,2.7-0.1,3.9c-0.7,1.2-2,1.9-3.4,1.9h-28.2v2.6C602.7,803.8,601,805.6,598.8,805.6z"/>
	</g>
	<g>
		<path class="st2" d="M245.2,851.3H225c-1.4,0-2.7-0.7-3.4-1.9s-0.8-2.7-0.1-3.9l16.3-31h-10.9c-1.5,0-2.9-0.8-3.5-2.2
			c-0.7-1.3-0.5-2.9,0.4-4.1l25.3-33.7h-9.7c-1.5,0-3-0.9-3.6-2.3c-0.6-1.4-0.4-3.1,0.6-4.2l32.7-38.1c0.8-0.9,1.8-1.4,3-1.4
			s2.2,0.5,3,1.4l32.7,38.1c1,1.2,1.2,2.8,0.6,4.2c-0.6,1.4-2,2.3-3.6,2.3H295l17.5,23.3c1.3,1.7,1,4.2-0.8,5.5
			c-1.7,1.3-4.2,1-5.5-0.8L284,772.9c-0.9-1.2-1-2.8-0.4-4.1c0.7-1.3,2-2.2,3.5-2.2h9l-24.1-28l-24.1,28h9c1.5,0,2.9,0.8,3.5,2.2
			c0.7,1.3,0.5,2.9-0.4,4.1l-25.3,33.7h9.5c1.4,0,2.7,0.7,3.4,1.9c0.7,1.2,0.8,2.7,0.1,3.9l-16.3,31h13.7c2.2,0,4,1.8,4,4
			S247.4,851.3,245.2,851.3z"/>
	</g>
	<g>
		<path class="st2" d="M326.6,799c-0.6,0-1.3-0.1-1.8-0.5c-1.9-1-2.7-3.4-1.7-5.3l16.3-31h-10.9c-1.5,0-2.9-0.8-3.5-2.2
			c-0.7-1.3-0.5-2.9,0.4-4.1l25.3-33.7H341c-1.5,0-3-0.9-3.6-2.3s-0.4-3.1,0.6-4.2l32.7-38.1c0.8-0.9,1.8-1.4,3-1.4s2.2,0.5,3,1.4
			l19.6,22.8c1.4,1.7,1.2,4.2-0.4,5.6c-1.7,1.4-4.2,1.2-5.6-0.4l-16.6-19.3l-24.1,28h9c1.5,0,2.9,0.8,3.5,2.2
			c0.7,1.3,0.5,2.9-0.4,4.1l-25.3,33.7h9.5c1.4,0,2.7,0.7,3.4,1.9c0.7,1.2,0.8,2.7,0.1,3.9L330,796.9C329.4,798.2,328,799,326.6,799
			z"/>
	</g>
</g>
</svg>
